<svg width="39" height="32" viewBox="0 0 39 32" fill="none" xmlns="http://www.w3.org/2000/svg">
<path fill-rule="evenodd" clip-rule="evenodd" d="M3.54545 7.61581C4.48577 7.61581 5.38757 7.24227 6.05247 6.57737C6.71737 5.91247 7.09091 5.01067 7.09091 4.07036C7.09091 3.13004 6.71737 2.22824 6.05247 1.56334C5.38757 0.89844 4.48577 0.524902 3.54545 0.524902C2.60514 0.524902 1.70334 0.89844 1.03844 1.56334C0.373538 2.22824 0 3.13004 0 4.07036C0 5.01067 0.373538 5.91247 1.03844 6.57737C1.70334 7.24227 2.60514 7.61581 3.54545 7.61581ZM12.7636 1.94308C12.1994 1.94308 11.6584 2.16721 11.2594 2.56615C10.8605 2.96509 10.6364 3.50617 10.6364 4.07036C10.6364 4.63454 10.8605 5.17563 11.2594 5.57457C11.6584 5.97351 12.1994 6.19763 12.7636 6.19763H36.8727C37.4369 6.19763 37.978 5.97351 38.3769 5.57457C38.7759 5.17563 39 4.63454 39 4.07036C39 3.50617 38.7759 2.96509 38.3769 2.56615C37.978 2.16721 37.4369 1.94308 36.8727 1.94308H12.7636ZM12.7636 26.0522C12.1994 26.0522 11.6584 26.2763 11.2594 26.6752C10.8605 27.0742 10.6364 27.6153 10.6364 28.1794C10.6364 28.7436 10.8605 29.2847 11.2594 29.6837C11.6584 30.0826 12.1994 30.3067 12.7636 30.3067H36.8727C37.4369 30.3067 37.978 30.0826 38.3769 29.6837C38.7759 29.2847 39 28.7436 39 28.1794C39 27.6153 38.7759 27.0742 38.3769 26.6752C37.978 26.2763 37.4369 26.0522 36.8727 26.0522H12.7636ZM10.6364 16.1249C10.6364 15.5607 10.8605 15.0196 11.2594 14.6207C11.6584 14.2218 12.1994 13.9976 12.7636 13.9976H36.8727C37.4369 13.9976 37.978 14.2218 38.3769 14.6207C38.7759 15.0196 39 15.5607 39 16.1249C39 16.6891 38.7759 17.2302 38.3769 17.6291C37.978 18.0281 37.4369 18.2522 36.8727 18.2522H12.7636C12.1994 18.2522 11.6584 18.0281 11.2594 17.6291C10.8605 17.2302 10.6364 16.6891 10.6364 16.1249ZM7.09091 16.1249C7.09091 17.0652 6.71737 17.967 6.05247 18.6319C5.38757 19.2968 4.48577 19.6704 3.54545 19.6704C2.60514 19.6704 1.70334 19.2968 1.03844 18.6319C0.373538 17.967 0 17.0652 0 16.1249C0 15.1846 0.373538 14.2828 1.03844 13.6179C1.70334 12.953 2.60514 12.5794 3.54545 12.5794C4.48577 12.5794 5.38757 12.953 6.05247 13.6179C6.71737 14.2828 7.09091 15.1846 7.09091 16.1249ZM3.54545 31.7249C4.48577 31.7249 5.38757 31.3514 6.05247 30.6865C6.71737 30.0216 7.09091 29.1198 7.09091 28.1794C7.09091 27.2391 6.71737 26.3373 6.05247 25.6724C5.38757 25.0075 4.48577 24.634 3.54545 24.634C2.60514 24.634 1.70334 25.0075 1.03844 25.6724C0.373538 26.3373 0 27.2391 0 28.1794C0 29.1198 0.373538 30.0216 1.03844 30.6865C1.70334 31.3514 2.60514 31.7249 3.54545 31.7249Z" fill="white"/>
</svg>
