<svg width="130" height="98" viewBox="0 0 130 98" fill="none" xmlns="http://www.w3.org/2000/svg">
<path d="M129.822 24.7895L129.507 22.1053H113.717C114.507 16.7368 114.98 11.2105 115.296 5.52632C115.454 2.52632 113.085 0 110.401 0H19.9276C17.0854 0 14.8749 2.52632 15.0328 5.52632C15.1907 11.2105 15.8223 16.7368 16.6118 22.1053H0.822292L0.348609 24.7895C0.190715 25.4211 -1.54613 41.5263 8.87492 56.0526C15.6644 65.5263 26.2433 72 39.9802 75.3158C44.4012 79.7368 49.296 83.0526 54.5065 85.1053C53.8749 91.5789 53.0854 97.8947 52.296 103.737H78.0328C77.0854 97.7368 76.296 91.5789 75.6644 85.1053C80.8749 83.2105 85.7697 79.8947 90.1907 75.3158C103.928 72 114.507 65.5263 121.296 56.0526C131.717 41.5263 129.822 25.4211 129.822 24.7895ZM13.4539 52.1053C6.82229 42.9474 6.03282 33 6.03282 28.2632H17.5591C20.5591 43.2632 25.9276 56.5263 32.717 66.4737C24.5065 63.3158 18.0328 58.4211 13.4539 52.1053ZM116.717 52.1053C112.138 58.4211 105.664 63.3158 97.4539 66.4737C104.401 56.3684 109.612 43.2632 112.612 28.2632H124.138C124.138 33 123.191 42.9474 116.717 52.1053Z" fill="#FFC54D"/>
</svg>
