<svg width="7" height="30" viewBox="0 0 7 30" fill="none" xmlns="http://www.w3.org/2000/svg">
<path d="M3.22786 3.77754V3.79358V3.77754ZM3.22786 15.0052V15.0213V15.0052ZM3.22786 26.2329V26.249V26.2329ZM3.22786 5.3815C2.82555 5.3815 2.43971 5.21251 2.15523 4.91171C1.87076 4.61091 1.71094 4.20294 1.71094 3.77754C1.71094 3.35215 1.87076 2.94417 2.15523 2.64337C2.43971 2.34257 2.82555 2.17358 3.22786 2.17358C3.63017 2.17358 4.01601 2.34257 4.30048 2.64337C4.58496 2.94417 4.74478 3.35215 4.74478 3.77754C4.74478 4.20294 4.58496 4.61091 4.30048 4.91171C4.01601 5.21251 3.63017 5.3815 3.22786 5.3815ZM3.22786 16.6092C2.82555 16.6092 2.43971 16.4402 2.15523 16.1394C1.87076 15.8386 1.71094 15.4306 1.71094 15.0052C1.71094 14.5798 1.87076 14.1719 2.15523 13.8711C2.43971 13.5703 2.82555 13.4013 3.22786 13.4013C3.63017 13.4013 4.01601 13.5703 4.30048 13.8711C4.58496 14.1719 4.74478 14.5798 4.74478 15.0052C4.74478 15.4306 4.58496 15.8386 4.30048 16.1394C4.01601 16.4402 3.63017 16.6092 3.22786 16.6092ZM3.22786 27.8369C2.82555 27.8369 2.43971 27.6679 2.15523 27.3671C1.87076 27.0663 1.71094 26.6583 1.71094 26.2329C1.71094 25.8075 1.87076 25.3996 2.15523 25.0988C2.43971 24.798 2.82555 24.629 3.22786 24.629C3.63017 24.629 4.01601 24.798 4.30048 25.0988C4.58496 25.3996 4.74478 25.8075 4.74478 26.2329C4.74478 26.6583 4.58496 27.0663 4.30048 27.3671C4.01601 27.6679 3.63017 27.8369 3.22786 27.8369Z" stroke="white" stroke-width="3.20791" stroke-linecap="round" stroke-linejoin="round"/>
</svg>
