<svg width="22" height="23" viewBox="0 0 22 23" fill="none" xmlns="http://www.w3.org/2000/svg">
<ellipse opacity="0.1" cx="10.5117" cy="11.1149" rx="10.5117" ry="11.1149" fill="#24FF00"/>
<path fill-rule="evenodd" clip-rule="evenodd" d="M10.2847 7.63123C10.328 7.46043 10.4337 7.3148 10.5786 7.22639C10.7234 7.13797 10.8955 7.114 11.0571 7.15974L14.5033 8.13613C14.6648 8.18193 14.8025 8.29369 14.8862 8.44683C14.9698 8.59997 14.9925 8.78196 14.9492 8.95278L14.0258 12.5967C13.9802 12.7648 13.874 12.9073 13.7301 12.9934C13.5862 13.0795 13.416 13.1024 13.2563 13.0571C13.0965 13.0119 12.96 12.9021 12.8761 12.7514C12.7921 12.6008 12.7675 12.4213 12.8075 12.2516L13.3369 10.1627L7.00856 14.026C6.8637 14.1144 6.69154 14.1384 6.52997 14.0926C6.3684 14.0468 6.23064 13.9351 6.147 13.7819C6.06337 13.6287 6.0407 13.4467 6.084 13.2758C6.12729 13.105 6.23299 12.9593 6.37786 12.8709L12.7062 9.0076L10.7306 8.44788C10.5691 8.40208 10.4314 8.29033 10.3478 8.13718C10.2641 7.98404 10.2415 7.80205 10.2847 7.63123Z" fill="#24FF00"/>
</svg>
