<svg width="347" height="432" viewBox="0 0 347 432" fill="none" xmlns="http://www.w3.org/2000/svg">
<path d="M173.66 15.8101L312.73 96.0701L173.74 182.82L34.71 96.0701L173.66 15.8101ZM173.66 0.590088C171.03 0.590088 168.4 1.2701 166.05 2.6301L27.1 82.8901C22.47 85.5601 19.58 90.4701 19.49 95.8101C19.4 101.16 22.1199 106.16 26.6499 108.99L165.68 195.74C168.14 197.28 170.94 198.05 173.74 198.05C176.54 198.05 179.33 197.28 181.8 195.74L320.79 108.99C325.32 106.16 328.04 101.16 327.95 95.8101C327.86 90.4601 324.97 85.5601 320.34 82.8901L181.27 2.6301C178.91 1.2701 176.28 0.590088 173.66 0.590088Z" fill="url(#paint0_radial_89_47)"/>
<path d="M15.97 133.34L133.17 206.52C146.53 214.83 154.62 229.42 154.62 245.15V371.33L154.37 371.97L153.69 372.27L153.22 372.14L141.69 365.44C139.78 364.34 137.62 363.79 135.58 363.79C132.32 363.79 129.35 365.06 127.06 367.22C124.81 369.34 123.33 372.56 123.33 376.04V406.65C123.33 409.45 122.27 411.91 120.66 413.6C119.05 415.3 116.97 416.27 114.55 416.27C114.13 416.27 113.66 416.23 113.19 416.18C110.9 415.84 109.08 414.74 107.72 413.17C106.36 411.56 105.6 409.57 105.6 407.4V368.73C105.6 353.76 97.63 339.98 84.7 332.52L73.63 326.16L73.59 326.12C71.5 325.01 69.25 324.42 67.07 324.42H66.85C63.12 324.42 59.64 325.86 57.06 328.36C54.47 330.82 52.73 334.51 52.73 338.54V348.29C52.73 351.64 49.98 354.4 46.63 354.4C43.28 354.4 40.52 351.64 40.52 348.29V326.16C40.52 315.35 35.22 305.34 26.53 299.19L26.49 298.89L23.95 297.45C19.03 294.61 15.98 289.35 15.98 283.63V133.34M15.97 118.11C13.43 118.11 10.89 118.74 8.59 120.02C3.75 122.7 0.75 127.8 0.75 133.34V283.65C0.75 294.76 6.72 305.11 16.33 310.66L16.44 310.72L16.82 310.93C17.12 311.18 17.43 311.41 17.74 311.64C22.47 314.99 25.3 320.42 25.3 326.18V348.31C25.3 360.07 34.87 369.64 46.63 369.64C58.39 369.64 67.96 360.07 67.96 348.31V340.47L77.12 345.73C85.29 350.45 90.38 359.27 90.38 368.74V407.41C90.38 413.09 92.4 418.62 96.08 422.98L96.21 423.13C100.06 427.58 105.16 430.38 110.97 431.24C111.25 431.28 111.53 431.31 111.82 431.34C112.47 431.4 113.44 431.49 114.56 431.49C121.08 431.49 127.17 428.86 131.71 424.08C136.13 419.43 138.57 413.23 138.57 406.64V381.21L145.59 385.29C146.73 385.96 147.96 386.47 149.24 386.82L149.71 386.95C151.02 387.31 152.36 387.48 153.71 387.48C155.8 387.48 157.87 387.05 159.81 386.2L160.49 385.9C164.16 384.3 167.05 381.31 168.53 377.59L168.78 376.95C169.5 375.16 169.86 373.24 169.86 371.31V245.15C169.86 224.02 159.15 204.75 141.22 193.6L24.05 120.43C21.57 118.88 18.77 118.11 15.97 118.11Z" fill="url(#paint1_radial_89_47)"/>
<path d="M331.47 133.34V270.97C331.47 284.49 324.22 297.05 312.48 303.83L265.84 330.75C259.06 334.65 253.59 340.25 249.77 346.82C245.96 353.35 243.88 360.9 243.88 368.74V407.15C243.88 408.8 243.33 410.46 242.4 411.73C241.47 412.96 240.28 413.77 238.88 414.1C238.33 414.23 237.82 414.27 237.31 414.27C235.48 414.27 233.83 413.51 232.6 412.32L232.56 412.28C231.37 411.14 230.65 409.48 230.65 407.66V380.52C230.65 375.64 228.57 371.23 225.43 368.27C222.29 365.26 218.09 363.48 213.6 363.48C210.76 363.48 207.83 364.24 205.16 365.77H205.12L194.18 372.13L193.72 372.26L193.04 371.96L192.79 371.32V238.78C192.79 227.04 198.85 216.1 208.82 209.86L246.68 186.24L247.23 186.07L248.04 186.41C248.25 186.66 248.38 186.79 248.38 187.21V217.74C248.38 228.04 256.73 236.4 267.04 236.4C277.35 236.4 285.7 228.05 285.7 217.74V179.54C285.7 168.56 291.34 158.38 300.67 152.57L331.47 133.34ZM331.47 118.11C328.67 118.11 325.87 118.88 323.41 120.42L292.59 139.67C278.74 148.3 270.46 163.21 270.46 179.55V217.75C270.46 219.64 268.92 221.18 267.03 221.18C265.14 221.18 263.6 219.64 263.6 217.75V187.22C263.6 183.28 262.3 179.74 259.74 176.68C258.19 174.83 256.18 173.33 253.95 172.39L253.14 172.05C251.26 171.26 249.24 170.85 247.23 170.85C245.72 170.85 244.21 171.07 242.75 171.52L242.2 171.69C240.94 172.08 239.74 172.63 238.62 173.32L200.76 196.94C186.23 206.03 177.57 221.66 177.57 238.77V371.31C177.57 373.24 177.94 375.16 178.65 376.95L178.9 377.59C180.38 381.31 183.28 384.3 186.95 385.9L187.63 386.2C189.57 387.05 191.64 387.47 193.73 387.47C195.07 387.47 196.42 387.29 197.73 386.93L198.2 386.8C199.48 386.45 200.71 385.94 201.85 385.27L212.13 379.29C212.33 379.19 212.54 379.08 212.74 378.96C213.2 378.7 213.53 378.68 213.62 378.68C214.21 378.68 214.64 378.98 214.91 379.23L214.99 379.31C215.15 379.46 215.44 379.9 215.44 380.5V407.64C215.44 413.45 217.78 419.07 221.86 423.08L222.03 423.25C226.19 427.26 231.61 429.47 237.31 429.47C239.04 429.47 240.67 429.29 242.31 428.91L242.47 428.87C247.29 427.7 251.46 424.94 254.53 420.9L254.67 420.7C257.53 416.8 259.1 411.98 259.1 407.12V368.71C259.1 363.66 260.42 358.74 262.91 354.47C265.49 350.03 269.11 346.39 273.42 343.92L320.08 316.98C336.49 307.5 346.69 289.86 346.69 270.93V133.34C346.69 127.81 343.69 122.71 338.85 120.02C336.55 118.74 334.01 118.11 331.47 118.11Z" fill="url(#paint2_radial_89_47)"/>
<defs>
<radialGradient id="paint0_radial_89_47" cx="0" cy="0" r="1" gradientUnits="userSpaceOnUse" gradientTransform="translate(173.74 99.3035) rotate(180) scale(129.494)">
<stop stop-color="#1FCF43"/>
<stop offset="1" stop-color="#05D7C2"/>
</radialGradient>
<radialGradient id="paint1_radial_89_47" cx="0" cy="0" r="1" gradientUnits="userSpaceOnUse" gradientTransform="translate(85.3454 274.778) rotate(180) scale(125.902 125.902)">
<stop stop-color="#1FCF43"/>
<stop offset="1" stop-color="#05D7C2"/>
</radialGradient>
<radialGradient id="paint2_radial_89_47" cx="0" cy="0" r="1" gradientUnits="userSpaceOnUse" gradientTransform="translate(262.065 273.843) rotate(180) scale(125.29 125.29)">
<stop stop-color="#1FCF43"/>
<stop offset="1" stop-color="#05D7C2"/>
</radialGradient>
</defs>
</svg>
