<svg width="250" height="64" viewBox="0 0 250 64" fill="none" xmlns="http://www.w3.org/2000/svg">
<path d="M25.6723 2.25974L46.3203 14.1761L25.6842 27.056L5.04211 14.1761L25.6723 2.25974ZM25.6723 0C25.2818 0 24.8913 0.100962 24.5424 0.302884L3.91224 12.2192C3.22481 12.6157 2.79573 13.3447 2.78237 14.1375C2.769 14.9318 3.17284 15.6742 3.84542 16.0944L24.4875 28.9743C24.8527 29.2029 25.2684 29.3173 25.6842 29.3173C26.0999 29.3173 26.5141 29.2029 26.8808 28.9743L47.517 16.0944C48.1895 15.6742 48.5934 14.9318 48.58 14.1375C48.5667 13.3432 48.1376 12.6157 47.4501 12.2192L26.8022 0.302884C26.4518 0.100962 26.0613 0 25.6723 0Z" fill="url(#paint0_radial_1_271)"/>
<path d="M2.25974 19.7097L19.6607 30.5749C21.6442 31.8087 22.8454 33.9749 22.8454 36.3104V55.0446L22.8083 55.1396L22.7073 55.1841L22.6375 55.1648L20.9256 54.1701C20.6421 54.0067 20.3214 53.9251 20.0185 53.9251C19.5345 53.9251 19.0935 54.1136 18.7535 54.4343C18.4194 54.7491 18.1997 55.2272 18.1997 55.7439V60.2886C18.1997 60.7043 18.0423 61.0695 17.8033 61.3205C17.5642 61.5729 17.2554 61.7169 16.8961 61.7169C16.8337 61.7169 16.764 61.7109 16.6942 61.7035C16.3542 61.653 16.084 61.4897 15.882 61.2566C15.6801 61.0176 15.5673 60.7221 15.5673 60.3999V54.6585C15.5673 52.4359 14.384 50.39 12.4642 49.2824L10.8206 48.3381L10.8147 48.3321C10.5044 48.1673 10.1703 48.0797 9.84666 48.0797H9.814C9.2602 48.0797 8.74351 48.2935 8.36045 48.6647C7.97591 49.03 7.71757 49.5778 7.71757 50.1762V51.6238C7.71757 52.1211 7.30927 52.5309 6.81189 52.5309C6.31451 52.5309 5.90473 52.1211 5.90473 51.6238V48.3381C5.90473 46.7331 5.11783 45.2469 3.82761 44.3338L3.82167 44.2892L3.44455 44.0755C2.71407 43.6538 2.26123 42.8728 2.26123 42.0236V19.7097M2.25974 17.4485C1.88262 17.4485 1.5055 17.542 1.16402 17.7321C0.445415 18.13 0 18.8872 0 19.7097V42.0265C0 43.6761 0.886378 45.2127 2.31319 46.0368L2.32952 46.0457L2.38595 46.0768C2.43049 46.114 2.47651 46.1481 2.52254 46.1823C3.22481 46.6796 3.64499 47.4858 3.64499 48.341V51.6267C3.64499 53.3728 5.06586 54.7936 6.81189 54.7936C8.55792 54.7936 9.9788 53.3728 9.9788 51.6267V50.4627L11.3388 51.2437C12.5518 51.9445 13.3075 53.254 13.3075 54.66V60.4014C13.3075 61.2447 13.6075 62.0658 14.1538 62.7131L14.1731 62.7354C14.7447 63.3961 15.502 63.8118 16.3646 63.9395C16.4061 63.9454 16.4477 63.9499 16.4908 63.9544C16.5873 63.9633 16.7313 63.9766 16.8976 63.9766C17.8656 63.9766 18.7698 63.5862 19.4439 62.8765C20.1001 62.1861 20.4624 61.2655 20.4624 60.2871V56.5115L21.5047 57.1172C21.6739 57.2167 21.8566 57.2924 22.0466 57.3444L22.1164 57.3637C22.3109 57.4171 22.5098 57.4424 22.7103 57.4424C23.0206 57.4424 23.3279 57.3785 23.6159 57.2523L23.7169 57.2078C24.2618 56.9702 24.6909 56.5263 24.9106 55.974L24.9477 55.879C25.0546 55.6132 25.1081 55.3281 25.1081 55.0416V36.3104C25.1081 33.1732 23.518 30.3121 20.8559 28.6566L3.4594 17.7929C3.09119 17.5628 2.67546 17.4485 2.25974 17.4485Z" fill="url(#paint1_radial_1_271)"/>
<path d="M49.1027 19.7097V40.1439C49.1027 42.1513 48.0263 44.0161 46.2832 45.0227L39.3585 49.0196C38.3518 49.5986 37.5397 50.43 36.9725 51.4055C36.4069 52.375 36.098 53.496 36.098 54.66V60.3628C36.098 60.6078 36.0164 60.8543 35.8783 61.0428C35.7402 61.2254 35.5635 61.3457 35.3557 61.3947C35.274 61.414 35.1983 61.4199 35.1226 61.4199C34.8509 61.4199 34.6059 61.3071 34.4233 61.1304L34.4173 61.1245C34.2407 60.9552 34.1338 60.7088 34.1338 60.4385V56.409C34.1338 55.6845 33.8249 55.0297 33.3587 54.5902C32.8925 54.1433 32.269 53.879 31.6023 53.879C31.1807 53.879 30.7456 53.9919 30.3492 54.2191H30.3433L28.719 55.1633L28.6507 55.1826L28.5497 55.1381L28.5126 55.0431V35.3646C28.5126 33.6215 29.4124 31.9973 30.8926 31.0708L36.5138 27.5639L36.5954 27.5386L36.7157 27.5891C36.7469 27.6262 36.7662 27.6455 36.7662 27.7079V32.2407C36.7662 33.77 38.0059 35.0112 39.5367 35.0112C41.0674 35.0112 42.3071 33.7715 42.3071 32.2407V26.5691C42.3071 24.9389 43.1445 23.4275 44.5298 22.5648L49.1027 19.7097ZM49.1027 17.4485C48.687 17.4485 48.2713 17.5628 47.906 17.7915L43.3301 20.6495C41.2738 21.9309 40.0444 24.1446 40.0444 26.5706V32.2422C40.0444 32.5228 39.8158 32.7515 39.5352 32.7515C39.2546 32.7515 39.0259 32.5228 39.0259 32.2422V27.7094C39.0259 27.1244 38.8329 26.5988 38.4528 26.1445C38.2227 25.8698 37.9242 25.6471 37.5932 25.5075L37.4729 25.4571C37.1938 25.3398 36.8939 25.2789 36.5954 25.2789C36.3712 25.2789 36.147 25.3116 35.9303 25.3784L35.8486 25.4036C35.6615 25.4615 35.4834 25.5432 35.3171 25.6456L29.6959 29.1525C27.5386 30.5021 26.2529 32.8228 26.2529 35.3631V55.0416C26.2529 55.3281 26.3078 55.6132 26.4132 55.879L26.4503 55.974C26.6701 56.5263 27.1006 56.9702 27.6455 57.2078L27.7465 57.2523C28.0345 57.3785 28.3419 57.4409 28.6522 57.4409C28.8511 57.4409 29.0516 57.4142 29.2461 57.3607L29.3158 57.3414C29.5059 57.2895 29.6885 57.2137 29.8578 57.1143L31.3841 56.2264C31.4138 56.2115 31.4449 56.1952 31.4746 56.1774C31.5429 56.1388 31.5919 56.1358 31.6053 56.1358C31.6929 56.1358 31.7567 56.1804 31.7968 56.2175L31.8087 56.2294C31.8324 56.2516 31.8755 56.317 31.8755 56.406V60.4356C31.8755 61.2982 32.2229 62.1326 32.8287 62.728L32.8539 62.7532C33.4716 63.3486 34.2763 63.6767 35.1226 63.6767C35.3794 63.6767 35.6214 63.65 35.8649 63.5936L35.8887 63.5876C36.6043 63.4139 37.2235 63.0041 37.6793 62.4043L37.7001 62.3746C38.1247 61.7956 38.3578 61.0799 38.3578 60.3584V54.6556C38.3578 53.9058 38.5538 53.1753 38.9235 52.5413C39.3065 51.8821 39.844 51.3417 40.4839 50.9749L47.4116 46.9751C49.848 45.5676 51.3624 42.9485 51.3624 40.138V19.7097C51.3624 18.8887 50.917 18.1315 50.1984 17.7321C49.8569 17.542 49.4798 17.4485 49.1027 17.4485Z" fill="url(#paint2_radial_1_271)"/>
<path d="M73.1015 27.7181C73.0807 27.6379 73.0614 27.5607 73.0406 27.485C73.0243 27.4241 73.0124 27.3647 72.9961 27.3083C72.9753 27.2475 72.956 27.191 72.9352 27.1346C72.9025 27.0381 72.8743 26.9416 72.8387 26.8525C72.5774 26.2156 72.2344 25.6722 71.8157 25.2178C71.397 24.7635 70.9219 24.376 70.3859 24.0583C69.8544 23.7406 69.3229 23.4347 68.7869 23.1437C68.2999 22.8898 67.8248 22.6404 67.3734 22.3909C67.1002 22.2425 66.8493 22.0732 66.6118 21.895H66.5954C66.438 21.7777 66.2851 21.6619 66.1485 21.5372C65.7981 21.215 65.5205 20.8528 65.3111 20.446C65.1345 20.1 65.0335 19.6977 65.0053 19.2344C65.0008 19.1736 64.9979 19.1142 64.9979 19.0488V19.0132C64.9979 19.0087 64.9979 19.0087 64.9979 19.0058V18.982C64.9979 18.0363 65.3156 17.2627 65.96 16.6629C66.4633 16.1922 67.0512 15.9057 67.7312 15.8047C68.4365 15.8255 69.9138 16.1343 70.4215 18.3733C70.429 18.4089 70.4379 18.446 70.4453 18.4772V18.4891C70.5656 19.0652 70.6665 20.7191 70.6339 21.5699L70.766 21.5209C72.8951 20.7444 73.7132 18.1639 72.4215 16.3021C71.645 15.199 70.227 14.3408 67.6867 14.421C67.5739 14.4254 67.461 14.4284 67.3437 14.4373C65.6571 14.5576 64.2555 15.098 63.1479 16.0482C61.871 17.1439 61.2356 18.6138 61.2356 20.4608C61.2356 20.9849 61.2846 21.46 61.3722 21.895H61.3648C61.3855 21.9752 61.4048 22.0524 61.4256 22.1326C61.442 22.189 61.4538 22.2499 61.4702 22.3063C61.491 22.3672 61.5103 22.4236 61.531 22.48C61.5637 22.5721 61.5919 22.673 61.6276 22.7621C61.8889 23.3991 62.2318 23.9425 62.6505 24.3968C63.0692 24.8511 63.5443 25.2386 64.0803 25.5564C64.6118 25.8741 65.1434 26.1799 65.6794 26.4709C66.1663 26.7248 66.6415 26.9743 67.0928 27.2237C67.366 27.3766 67.6169 27.5414 67.8545 27.7196H67.8708C68.0282 27.8369 68.1811 27.9527 68.3177 28.0774C68.4914 28.2378 68.6518 28.407 68.7884 28.5926C68.7928 28.5926 68.7928 28.5971 68.7928 28.6C68.9339 28.7767 69.0512 28.9668 69.1551 29.1672C69.2323 29.3127 69.2917 29.4686 69.3407 29.6349C69.3615 29.7032 69.3808 29.7715 69.3926 29.8398C69.4416 30.0818 69.4698 30.3476 69.4698 30.6326C69.4698 31.5784 69.1521 32.3519 68.5077 32.9517C68.0044 33.4224 67.4165 33.709 66.7365 33.8099C66.0283 33.7891 64.5495 33.4759 64.0432 31.2295C63.9868 30.9711 63.9422 30.6905 63.9111 30.3802C63.9111 30.3758 63.9111 30.3758 63.9111 30.3728C63.871 29.966 64.0165 27.4954 64.0373 26.9832C64.0373 26.9832 63.2147 27.5726 62.4575 28.116C61.6409 28.7025 61.1435 29.6497 61.1643 30.6549C61.1658 30.7009 61.1673 30.7365 61.1688 30.7618L61.1732 30.7974C61.2534 31.5873 61.4835 32.5093 62.0477 33.3096C62.3135 33.6837 62.6476 34.0297 63.0781 34.3162C63.9155 34.8878 65.1033 35.2427 66.7825 35.1907C66.8953 35.1862 67.0082 35.1833 67.1255 35.1744C68.8121 35.0541 70.2137 34.5137 71.3213 33.5635C72.5981 32.4677 73.2336 30.9979 73.2336 29.1509C73.2336 28.6268 73.1846 28.1517 73.097 27.7181H73.1015Z" fill="white"/>
<path d="M249.862 27.7181H249.869C249.848 27.6379 249.829 27.5607 249.808 27.485C249.792 27.4241 249.78 27.3647 249.764 27.3083C249.743 27.2475 249.724 27.191 249.703 27.1346C249.67 27.0381 249.642 26.9416 249.606 26.8525C249.345 26.2156 249.002 25.6722 248.583 25.2178C248.165 24.7635 247.69 24.376 247.154 24.0583C246.622 23.7406 246.091 23.4347 245.555 23.1437C245.068 22.8898 244.592 22.6404 244.141 22.3909C243.868 22.2425 243.617 22.0732 243.379 21.895H243.363C243.206 21.7777 243.053 21.6619 242.916 21.5372C242.566 21.215 242.288 20.8528 242.079 20.446C241.902 20.1 241.801 19.6977 241.773 19.2344C241.769 19.1736 241.766 19.1142 241.766 19.0488V19.0132C241.766 19.0087 241.766 19.0087 241.766 19.0058V18.982C241.766 18.0363 242.083 17.2627 242.728 16.6629C243.231 16.1922 243.819 15.9057 244.499 15.8047C245.204 15.8255 246.681 16.1343 247.189 18.3733C247.197 18.4089 247.206 18.446 247.213 18.4772V18.4891C247.333 19.0652 247.434 20.7191 247.402 21.5699L247.534 21.5209C249.663 20.7444 250.481 18.1639 249.189 16.3021C248.413 15.199 246.995 14.3408 244.454 14.421C244.342 14.4254 244.229 14.4284 244.111 14.4373C242.425 14.5576 241.023 15.098 239.916 16.0482C238.639 17.1439 238.003 18.6138 238.003 20.4608C238.003 20.9849 238.052 21.46 238.14 21.895H238.132C238.153 21.9752 238.173 22.0524 238.193 22.1326C238.21 22.189 238.222 22.2499 238.238 22.3063C238.259 22.3672 238.278 22.4236 238.299 22.48C238.331 22.5721 238.36 22.673 238.395 22.7621C238.657 23.3991 239 23.9425 239.418 24.3968C239.837 24.8511 240.312 25.2386 240.848 25.5564C241.38 25.8741 241.911 26.1799 242.447 26.4709C242.934 26.7248 243.409 26.9743 243.86 27.2237C244.134 27.3766 244.385 27.5414 244.622 27.7196H244.638C244.796 27.8369 244.949 27.9527 245.085 28.0774C245.259 28.2378 245.419 28.407 245.556 28.5926C245.561 28.5926 245.561 28.5971 245.561 28.6C245.702 28.7767 245.819 28.9668 245.923 29.1672C246 29.3127 246.059 29.4686 246.108 29.6349C246.129 29.7032 246.148 29.7715 246.16 29.8398C246.209 30.0818 246.238 30.3476 246.238 30.6326C246.238 31.5784 245.92 32.3519 245.275 32.9517C244.772 33.4224 244.184 33.709 243.504 33.8099C242.796 33.7891 241.317 33.4759 240.811 31.2295C240.754 30.9711 240.71 30.6905 240.679 30.3802C240.679 30.3758 240.679 30.3758 240.679 30.3728C240.639 29.966 240.784 27.4954 240.805 26.9832C240.805 26.9832 239.982 27.5726 239.225 28.116C238.409 28.7025 237.911 29.6497 237.932 30.6549C237.934 30.7009 237.935 30.7365 237.936 30.7618L237.941 30.7974C238.021 31.5873 238.251 32.5093 238.814 33.3096C239.08 33.6837 239.414 34.0297 239.844 34.3162C240.682 34.8878 241.869 35.2427 243.549 35.1907C243.662 35.1862 243.774 35.1833 243.892 35.1744C245.578 35.0541 246.98 34.5137 248.087 33.5635C249.364 32.4677 250 30.9979 250 29.1509C249.998 28.6282 249.949 28.1531 249.862 27.7181Z" fill="white"/>
<path d="M123.135 14.7905H119.647V34.8639H120.765H123.135H130.452C131.645 34.8639 132.612 33.8974 132.612 32.7037H123.135V14.7905Z" fill="white"/>
<path d="M218.499 14.7729H216.139L210.407 27.6187L203.008 14.7893H199.231V15.2362L199.796 16.2131V34.885H201.956V19.9531L208.526 31.3365C209.128 32.3817 210.662 32.303 211.155 31.2014L216.285 19.726V34.8627H219.772V14.7893H218.491L218.499 14.7729Z" fill="white"/>
<path d="M223.339 14.7893V17.1173H223.365V34.8627H224.881H226.853H232.817C234.103 34.8627 235.145 33.8204 235.145 32.5347H226.855V17.1173H232.819C234.104 17.1173 235.147 16.0751 235.147 14.7893H223.339Z" fill="white"/>
<path d="M228.149 25.9899H232.817C234.103 25.9899 235.145 24.9476 235.145 23.6619H230.477C229.192 23.6619 228.149 24.7041 228.149 25.9899Z" fill="white"/>
<path d="M106.582 30.9238L97.2773 14.7893H95.6589H93.4987V15.2347V34.8583H95.6589V18.9762L104.855 34.9073L106.582 33.6631L107.704 32.8554L108.73 32.1071V14.7893H106.582V30.9238Z" fill="white"/>
<path d="M115.575 33.6913V31.4731V16.8605C115.575 15.7173 114.648 14.7893 113.504 14.7893H113.213H112.087H110.445C111.352 14.7893 112.087 15.5242 112.087 16.4314V18.127V32.5317C112.087 33.819 113.131 34.8627 114.42 34.8627H114.619H115.575H116.746C116.099 34.8627 115.575 34.3386 115.575 33.6913Z" fill="white"/>
<path d="M137.941 33.6913V31.4731V16.8605C137.941 15.7173 137.014 14.7893 135.87 14.7893H135.579H134.453H132.811C133.718 14.7893 134.453 15.5242 134.453 16.4314V18.127V32.5317C134.453 33.819 135.497 34.8627 136.786 34.8627H136.985H137.941H139.112C138.465 34.8627 137.941 34.3386 137.941 33.6913Z" fill="white"/>
<path d="M84.9081 16.648C84.5428 15.6993 83.6297 15.0728 82.6127 15.0728H80.5563L81.2378 16.8529L75.0673 33.0779C74.8001 33.7758 75.3138 34.5196 76.0621 34.5196H78.4065C77.6418 34.5196 77.1133 33.755 77.385 33.0423L77.5394 32.637L78.6262 29.7848H82.335C83.5302 29.7848 84.4998 28.8198 84.4998 27.6261H79.4473L82.4063 19.8595V19.8699L87.4736 33.0423C87.8166 33.9346 88.6733 34.5196 89.628 34.5196H92.0139L90.7371 31.7803L84.9081 16.648Z" fill="white"/>
<path d="M149.808 15.0742H149.737H147.425H146.062L146.744 16.8529L140.572 33.0764C140.306 33.7743 140.821 34.5211 141.568 34.5211H141.798H142.327H143.911C143.146 34.5211 142.619 33.755 142.891 33.0408L143.045 32.637L144.132 29.7833H147.845C149.039 29.7833 150.006 28.8168 150.006 27.6231H144.956L147.915 19.8565V19.8684L152.982 33.0408C153.325 33.9316 154.181 34.5196 155.135 34.5196H157.521L156.241 31.7803L149.808 15.0742Z" fill="white"/>
<path d="M190.543 15.0742H190.472H188.16H186.797L187.478 16.8529L181.306 33.0764C181.041 33.7743 181.556 34.5211 182.303 34.5211H182.533H183.061H184.645C183.881 34.5211 183.354 33.755 183.625 33.0408L183.78 32.637L184.867 29.7833H188.58C189.774 29.7833 190.74 28.8168 190.74 27.6231H185.691L188.65 19.8565V19.8684L193.717 33.0408C194.06 33.9316 194.915 34.5196 195.87 34.5196H198.256L196.976 31.7803L190.543 15.0742Z" fill="white"/>
<path d="M160.023 34.7987C161.023 34.7987 161.833 33.9884 161.833 32.9888C161.833 31.9893 161.023 31.179 160.023 31.179C159.023 31.179 158.213 31.9893 158.213 32.9888C158.213 33.9884 159.023 34.7987 160.023 34.7987Z" fill="white"/>
<path d="M178.926 33.8068V33.3644V26.8034C178.926 25.7225 178.05 24.8465 176.97 24.8465H175.439H173.255C172.061 24.8465 171.095 25.8131 171.095 27.0068H175.439V30.0134C175.35 31.7995 173.73 33.1402 171.95 32.8403C169.781 32.4706 167.409 31.0289 167.409 26.4797V23.1614C167.409 21.448 168.107 19.8935 169.23 18.7711C170.364 17.6367 171.944 16.9345 173.682 16.9508C174.769 16.9612 175.626 17.8787 175.626 18.9507V22.9001L177.4 21.3664C178.882 20.0999 179.062 17.8327 177.739 16.4059C176.794 15.4156 175.466 14.7905 173.994 14.7905H172.279C167.261 14.7905 163.191 18.8587 163.191 23.8785V26.502C163.191 31.1165 166.933 34.858 171.547 34.858C172.927 34.858 174.178 34.2983 175.081 33.3955C175.252 33.2248 175.405 33.0377 175.549 32.8447C175.886 34.0102 176.959 34.8639 178.235 34.8639H178.496H178.925H179.981C179.399 34.8625 178.926 34.3903 178.926 33.8068Z" fill="white"/>
<path d="M73.0004 40.9394C73.0509 40.7642 73.0509 40.7642 73.238 40.7642H73.7739L71.0168 49.4973H70.2314L68.4349 44.133L67.6732 41.7129L66.9116 44.133L65.1151 49.4973H64.3297L61.8472 41.6372C61.6854 41.1131 61.4107 40.8889 61.1613 40.8889V40.7642H61.7225C62.0847 40.7642 62.3342 40.9141 62.4455 41.263L64.1426 46.6273L64.7661 48.7237L65.415 46.6273L67.3733 40.7642H67.9717L69.93 46.6273L70.5788 48.7237L71.2024 46.6273L73.0004 40.9394Z" fill="white"/>
<path d="M74.8369 40.7642H75.3981C75.7857 40.7642 76.0722 41.0017 76.0841 41.3506V44.8813H81.7602V40.7642H82.4461V49.4973H81.7602V45.4678H76.0841V49.4973H75.3981V41.6372C75.3981 41.1636 75.1739 40.8889 74.8369 40.8889V40.7642Z" fill="white"/>
<path d="M84.507 40.7642H90.97V41.3506H85.7557V44.8813H90.3078V45.4678H85.7542V48.9108H90.9685V49.4973H85.0668V41.6372C85.0668 41.1636 84.8426 40.8889 84.5056 40.8889V40.7642H84.507Z" fill="white"/>
<path d="M99.0542 49.4973C98.8672 49.4973 98.8672 49.4973 98.7543 49.3473L96.6965 46.5278C96.5718 46.3526 96.4471 46.2665 96.0224 46.2665H93.6513V49.4973H92.9654V41.6372C92.9654 41.1636 92.7412 40.8889 92.4042 40.8889V40.7642H96.0224C98.5168 40.7642 99.4031 41.7367 99.4031 43.4842C99.4031 44.7818 98.8048 45.83 97.1954 46.1537C97.3334 46.2413 97.4448 46.3913 97.62 46.6273L99.7283 49.4973H99.0542ZM93.6528 45.6801H96.2362C97.8828 45.6801 98.7187 44.9184 98.7187 43.4842C98.7187 42.0499 97.8709 41.3506 96.2362 41.3506H93.6528V45.6801Z" fill="white"/>
<path d="M100.915 40.7642H107.378V41.3506H102.163V44.8813H106.717V45.4678H102.163V48.9108H107.378V49.4973H101.476V41.6372C101.476 41.1636 101.252 40.8889 100.915 40.8889V40.7642Z" fill="white"/>
<path d="M112.245 47.9874C112.819 48.4492 113.842 48.9599 115.401 48.9599C116.749 48.9599 117.895 48.51 117.895 47.2881C117.895 45.8153 116.711 45.5792 115.351 45.355C113.916 45.1175 112.294 44.6809 112.294 42.9349C112.294 41.4383 113.665 40.7019 115.3 40.7019C116.473 40.7019 117.695 41.0642 118.42 41.6506L118.133 42.1495C117.497 41.6625 116.387 41.2884 115.302 41.2884C114.041 41.2884 112.981 41.762 112.981 42.923C112.981 44.0841 114.103 44.4449 115.352 44.6453C116.823 44.8829 118.596 45.2823 118.596 47.1901C118.596 48.8738 117.137 49.5612 115.327 49.5612C113.842 49.5612 112.694 49.0995 111.958 48.5011L112.245 47.9874Z" fill="white"/>
<path d="M119.307 40.7642H126.045V41.3506H123.025V49.4973H122.339V41.3506H119.307V40.7642Z" fill="white"/>
<path d="M126.856 44.0322C126.856 41.7368 128.378 40.7004 130.749 40.7004C133.12 40.7004 134.642 41.7353 134.642 44.0322V46.2281C134.642 48.5234 133.12 49.5598 130.749 49.5598C128.378 49.5598 126.856 48.5234 126.856 46.2281V44.0322ZM127.543 46.2043C127.543 48.1508 128.728 48.9733 130.75 48.9733C132.772 48.9733 133.994 48.1493 133.957 46.2043V44.0589C133.957 42.1124 132.772 41.2899 130.75 41.2899C128.728 41.2899 127.543 42.1139 127.543 44.0589V46.2043Z" fill="white"/>
<path d="M142.914 49.4973C142.727 49.4973 142.727 49.4973 142.615 49.3473L140.557 46.5278C140.432 46.3526 140.307 46.2665 139.883 46.2665H137.512V49.4973H136.826V41.6372C136.826 41.1636 136.601 40.8889 136.264 40.8889V40.7642H139.883C142.377 40.7642 143.263 41.7367 143.263 43.4842C143.263 44.7818 142.665 45.83 141.056 46.1537C141.194 46.2413 141.305 46.3913 141.48 46.6273L143.589 49.4973H142.914ZM137.513 45.6801H140.095C141.742 45.6801 142.577 44.9184 142.577 43.4842C142.577 42.0499 141.73 41.3506 140.095 41.3506H137.513V45.6801Z" fill="white"/>
<path d="M144.775 40.7642H145.336C145.723 40.7642 146.01 41.0017 146.022 41.3506V49.4973H145.336V41.6372C145.336 41.1636 145.112 40.8889 144.775 40.8889V40.7642Z" fill="white"/>
<path d="M148.081 40.7642H154.544V41.3506H149.33V44.8813H153.884V45.4678H149.33V48.9108H154.544V49.4973H148.643V41.6372C148.643 41.1636 148.418 40.8889 148.081 40.8889V40.7642Z" fill="white"/>
<path d="M156.167 47.9874C156.742 48.4492 157.765 48.9599 159.323 48.9599C160.672 48.9599 161.818 48.51 161.818 47.2881C161.818 45.8153 160.633 45.5792 159.273 45.355C157.839 45.1175 156.216 44.6809 156.216 42.9349C156.216 41.4383 157.588 40.7019 159.223 40.7019C160.395 40.7019 161.617 41.0642 162.342 41.6506L162.055 42.1495C161.42 41.6625 160.309 41.2884 159.224 41.2884C157.963 41.2884 156.903 41.762 156.903 42.923C156.903 44.0841 158.026 44.4449 159.274 44.6453C160.746 44.8829 162.519 45.2823 162.519 47.1901C162.519 48.8738 161.059 49.5612 159.249 49.5612C157.765 49.5612 156.617 49.0995 155.88 48.5011L156.167 47.9874Z" fill="white"/>
<path d="M174.27 41.7502L173.896 42.1867C173.272 41.6002 172.423 41.2884 171.176 41.2884C169.155 41.2884 167.969 42.1124 167.969 44.0574V46.2028C167.969 48.1493 169.154 48.9718 171.176 48.9718C172.423 48.9718 173.272 48.66 173.896 48.0736L174.27 48.5101C173.609 49.196 172.561 49.5583 171.176 49.5583C168.805 49.5583 167.283 48.522 167.283 46.2266V44.0307C167.283 41.7353 168.805 40.699 171.176 40.699C172.561 40.7019 173.609 41.0642 174.27 41.7502Z" fill="white"/>
<path d="M175.394 44.0322C175.394 41.7368 176.916 40.7004 179.287 40.7004C181.658 40.7004 183.18 41.7353 183.18 44.0322V46.2281C183.18 48.5234 181.658 49.5598 179.287 49.5598C176.916 49.5598 175.394 48.5234 175.394 46.2281V44.0322ZM176.08 46.2043C176.08 48.1508 177.265 48.9733 179.287 48.9733C181.309 48.9733 182.531 48.1493 182.494 46.2043V44.0589C182.494 42.1124 181.309 41.2899 179.287 41.2899C177.265 41.2899 176.08 42.1139 176.08 44.0589V46.2043Z" fill="white"/>
<path d="M192.813 40.9884C192.926 40.7642 192.938 40.7642 193.175 40.7642H193.799V49.4973H193.125V43.26L193.15 41.6624L189.719 48.8485H189.457L186.014 41.6624L186.04 43.26V49.4973H185.366V41.6372C185.366 41.1636 185.141 40.8889 184.804 40.8889V40.7642H185.478C186.065 40.7642 186.377 41.0255 186.739 41.7871L189.122 46.7773L189.584 47.8255L190.057 46.7654L192.813 40.9884Z" fill="white"/>
<path d="M195.858 40.7642H202.321V41.3506H197.105V44.8813H201.659V45.4678H197.105V48.9108H202.321V49.4973H196.419V41.6372C196.419 41.1636 196.195 40.8889 195.858 40.8889V40.7642Z" fill="white"/>
<path d="M206.128 40.7642H212.866V41.3506H209.846V49.4973H209.16V41.3506H206.128V40.7642Z" fill="white"/>
<path d="M213.676 44.0322C213.676 41.7368 215.198 40.7004 217.569 40.7004C219.94 40.7004 221.462 41.7353 221.462 44.0322V46.2281C221.462 48.5234 219.94 49.5598 217.569 49.5598C215.198 49.5598 213.676 48.5234 213.676 46.2281V44.0322ZM214.364 46.2043C214.364 48.1508 215.548 48.9733 217.571 48.9733C219.591 48.9733 220.815 48.1493 220.777 46.2043V44.0589C220.777 42.1124 219.593 41.2899 217.571 41.2899C215.55 41.2899 214.364 42.1139 214.364 44.0589V46.2043Z" fill="white"/>
<path d="M226.329 40.7642H226.89C227.278 40.7642 227.564 41.0017 227.576 41.3506V48.9108H232.192V49.4973H226.89V41.6372C226.89 41.1636 226.666 40.8889 226.329 40.8889V40.7642Z" fill="white"/>
<path d="M233.067 40.7642H233.628C234.015 40.7642 234.302 41.0017 234.314 41.3506V49.4973H233.628V41.6372C233.628 41.1636 233.404 40.8889 233.067 40.8889V40.7642Z" fill="white"/>
<path d="M236.373 40.7642H242.287V41.3506H237.62V44.8813H241.624V45.4678H237.62V49.4973H236.934V41.6372C236.934 41.1636 236.71 40.8889 236.373 40.8889V40.7642Z" fill="white"/>
<path d="M243.535 40.7642H249.998V41.3506H244.784V44.8813H249.338V45.4678H244.784V48.9108H249.998V49.4973H244.097V41.6372C244.097 41.1636 243.872 40.8889 243.535 40.8889V40.7642Z" fill="white"/>
<defs>
<radialGradient id="paint0_radial_1_271" cx="0" cy="0" r="1" gradientUnits="userSpaceOnUse" gradientTransform="translate(25.6842 14.6562) rotate(180) scale(19.2263)">
<stop stop-color="#1FCF43"/>
<stop offset="1" stop-color="#05D7C2"/>
</radialGradient>
<radialGradient id="paint1_radial_1_271" cx="0" cy="0" r="1" gradientUnits="userSpaceOnUse" gradientTransform="translate(12.56 40.7092) rotate(180) scale(18.6929 18.6929)">
<stop stop-color="#1FCF43"/>
<stop offset="1" stop-color="#05D7C2"/>
</radialGradient>
<radialGradient id="paint2_radial_1_271" cx="0" cy="0" r="1" gradientUnits="userSpaceOnUse" gradientTransform="translate(38.798 40.5704) rotate(180) scale(18.602)">
<stop stop-color="#1FCF43"/>
<stop offset="1" stop-color="#05D7C2"/>
</radialGradient>
</defs>
</svg>
