<svg width="48" height="59" viewBox="0 0 48 59" fill="none" xmlns="http://www.w3.org/2000/svg">
<path d="M28.8884 15.5569V8.58568C28.8884 6.73681 28.3733 4.96366 27.4565 3.65631C26.5397 2.34896 25.2962 1.6145 23.9996 1.6145H6.8888C5.59221 1.6145 4.34872 2.34896 3.4319 3.65631C2.51507 4.96366 2 6.73681 2 8.58568V50.4128C2 52.2616 2.51507 54.0348 3.4319 55.3421C4.34872 56.6495 5.59221 57.3839 6.8888 57.3839H23.9996C25.2962 57.3839 26.5397 56.6495 27.4565 55.3421C28.3733 54.0348 28.8884 52.2616 28.8884 50.4128V43.4416" stroke="white" stroke-width="3" stroke-linecap="round" stroke-linejoin="round"/>
<path d="M16.667 29.5H45.9998M45.9998 29.5L38.6666 19.0432M45.9998 29.5L38.6666 39.9568" stroke="white" stroke-width="3" stroke-linecap="round" stroke-linejoin="round"/>
</svg>
