<svg width="741" height="844" viewBox="0 0 741 844" fill="none" xmlns="http://www.w3.org/2000/svg">
<mask id="mask0_85_1337" style="mask-type:alpha" maskUnits="userSpaceOnUse" x="-408" y="0" width="1149" height="844">
<g opacity="0.3">
<path d="M-371.582 138.51C-262.858 222.119 -120.756 247.989 13.5432 243.949C167.654 239.315 317.228 198.097 468.237 171.165C511.362 163.47 554.709 156.906 598.303 152.645C637.224 148.853 679.053 145.571 714.72 164.794C716.54 165.773 718.167 163.015 716.347 162.008C687.794 146.412 654.747 145.212 622.982 147.322C586.005 149.777 549.125 154.838 512.534 160.616C436.251 172.654 360.823 189.368 285.132 204.482C138.412 233.772 -14.3203 257.422 -162.861 226.849C-237.586 211.473 -309.127 182.445 -370.865 137.283C-371.609 136.731 -372.299 137.959 -371.582 138.51Z" fill="white"/>
<path d="M-371.582 121.548C-262.858 205.157 -120.756 231.028 13.5432 226.987C167.654 222.354 317.228 181.135 468.237 154.203C511.362 146.508 554.709 139.944 598.303 135.683C637.224 131.891 679.053 128.609 714.72 147.832C716.54 148.811 718.167 146.053 716.347 145.047C687.794 129.45 654.747 128.25 622.982 130.36C586.005 132.815 549.125 137.876 512.534 143.654C436.251 155.693 360.823 172.406 285.132 187.52C138.412 216.81 -14.3203 240.46 -162.861 209.887C-237.586 194.512 -309.127 165.484 -370.865 120.321C-371.609 119.77 -372.299 120.997 -371.582 121.548Z" fill="white"/>
<path d="M-371.582 104.918C-262.858 188.527 -120.756 214.397 13.5432 210.356C167.654 205.723 317.228 164.504 468.237 137.572C511.362 129.878 554.709 123.314 598.303 119.052C637.224 115.26 679.053 111.978 714.72 131.201C716.54 132.18 718.167 129.423 716.347 128.416C687.794 112.819 654.747 111.62 622.982 113.729C586.005 116.184 549.125 121.245 512.534 127.023C436.251 139.062 360.823 155.775 285.132 170.889C138.412 200.179 -14.3203 223.829 -162.861 193.257C-237.586 177.881 -309.127 148.839 -370.865 103.69C-371.609 103.139 -372.299 104.366 -371.582 104.918Z" fill="white"/>
<path d="M-364.729 93.6787C-358.305 103.842 -348.406 110.034 -338.065 115.715C-324.458 123.189 -310.726 130.457 -296.76 137.241C-271.957 149.28 -246.424 159.83 -220.256 168.503C-167.934 185.838 -112.428 197.09 -57.5286 201.834C4.34729 207.171 67.4502 202.634 127.189 185.12C181.289 169.262 231.542 143.116 281.396 117.287C338.626 87.6387 395.938 59.2864 458.889 43.9932C460.365 43.6347 459.73 41.4283 458.269 41.7178C404.996 52.4327 354.977 76.5239 306.874 101.043C257.062 126.43 207.939 153.79 155.259 172.958C43.0334 213.804 -79.0914 205.709 -192.558 174.02C-222.035 165.787 -250.822 155.293 -278.726 142.73C-294.182 135.766 -309.375 128.264 -324.334 120.293C-338.217 112.902 -353.907 106.048 -363.296 92.8513C-363.902 91.9963 -365.309 92.7686 -364.729 93.6925V93.6787Z" fill="white"/>
<path d="M454.988 51.7846C408.112 62.6925 362.243 82.7157 319.241 104.035C297.348 114.888 275.909 126.678 255.049 139.393C249.769 142.62 244.337 145.75 239.249 149.28C236.906 150.907 234.962 152.59 234.507 155.555C233.735 160.602 237.554 164.477 242.365 164.849C247.577 165.249 253.271 163.939 258.455 163.374C265.541 162.588 272.614 161.719 279.673 160.781C292.15 159.14 304.613 157.292 317.049 155.293C343.01 151.114 368.874 146.274 394.711 141.406C446.798 131.574 498.982 122.265 551.441 114.626C610.684 105.993 670.615 101.967 729.362 116.143C731.209 116.584 731.995 113.757 730.148 113.302C683.741 101.939 635.955 101.842 588.68 106.89C540.646 112.019 492.723 120.321 445.226 128.967C396.117 137.903 347.229 148.177 297.844 155.513C285.188 157.403 272.503 159.071 259.792 160.491C255.118 161.016 247.728 163.125 243.096 162.091C237.264 160.781 236.63 155.941 240.297 152.19C242.544 149.887 246.405 148.232 249.162 146.508C268.85 134.249 289.02 122.762 309.646 112.144C333.097 100.064 357.128 89.0729 381.6 79.213C406.071 69.3531 430.695 61.4928 455.222 52.5017C455.663 52.3362 455.498 51.6881 455.029 51.7846H454.988Z" fill="white"/>
<path d="M485.526 51.5226C442.442 60.624 399.978 75.1174 359.761 92.9893C340.211 101.677 320.882 111.178 302.339 121.866C296.975 124.955 277.563 135.711 292.081 141.241C299.953 144.247 310.611 141.365 318.648 140.124C330.588 138.29 342.403 135.697 354.274 133.422C376.554 129.147 398.902 125.148 421.279 121.411C468.719 113.481 516.353 106.614 564.153 101.208C589.879 98.2984 615.647 95.5128 641.566 95.5956C667.941 95.6645 693.957 98.919 720.014 102.808C721.848 103.084 722.675 100.298 720.8 99.9808C678.929 92.7272 637.031 90.8518 594.719 94.9474C552.406 99.0431 509.874 104.656 467.672 111.04C424.725 117.549 381.944 124.982 339.329 133.408C327.307 135.78 315.257 138.165 303.028 139.062C299.319 139.338 288.372 140.013 290.882 133.394C291.819 130.939 297.816 128.154 300.064 126.761C316.153 116.805 333.497 108.434 350.62 100.436C394.297 80.0128 439.767 66.3883 485.87 52.7775C486.684 52.5431 486.339 51.3433 485.526 51.5226Z" fill="white"/>
<path d="M496.541 56.8869C459.193 64.9816 423.112 77.7788 387.363 91.0586C376.664 95.0301 367.275 99.2775 357.845 105.842C355.404 107.538 352.164 109.151 351.93 112.433C351.641 116.543 355.556 119.576 359.168 120.293C365.676 121.59 373.41 117.935 379.587 116.294C388.879 113.826 398.227 111.551 407.588 109.399C426.338 105.111 445.24 101.511 464.225 98.4363C502.911 92.1618 542.025 88.4661 581.207 87.2801C624.016 85.9839 666.879 87.8593 709.426 92.7686C711.411 93.003 711.397 89.8865 709.426 89.652C640.836 81.7365 571.336 81.6952 502.801 90.1623C468.843 94.3544 435.19 100.588 401.977 108.751C394.339 110.627 386.728 112.626 379.146 114.695C375.092 115.798 370.997 117.287 366.861 118.087C364.269 118.584 359.416 119.066 356.976 117.866C348.58 113.743 355.556 109.537 358.079 107.745C366.848 101.511 375.768 97.0986 385.846 93.4167C403.576 86.9492 421.099 80.0404 439.064 74.2072C458.103 68.0154 477.405 62.8304 496.693 57.4799C497.079 57.3695 496.914 56.7904 496.528 56.8869H496.541Z" fill="white"/>
<path d="M526.308 54.777C516.547 54.6253 506.813 56.2801 497.548 59.3002C490.489 61.6031 480.149 64.6645 475.241 70.5804C472.607 73.7659 472.883 77.834 476.44 80.0817C482.768 84.0671 494.253 81.047 501.105 80.5644C548.132 77.3099 594.925 74.3451 642.09 75.5448C668.644 76.2205 695.101 78.1925 721.559 80.4817C723.365 80.6333 723.309 77.8891 721.559 77.6961C672.05 71.9318 621.672 70.8562 571.915 73.3108C547.374 74.5244 522.944 77.0066 498.444 78.8268C492.736 79.2543 485.871 80.7023 480.245 79.4612C474.262 78.1511 476.95 71.8077 480.576 68.7601C482.851 66.8433 486.505 65.6022 489.207 64.4025C501.036 59.176 513.458 56.8869 526.308 55.9492C527.052 55.894 527.08 54.7908 526.308 54.777Z" fill="white"/>
<path d="M-375.483 68.6636C-337.032 103.111 -291.107 128.333 -243.06 146.743C-219.429 155.803 -195.178 163.194 -170.582 169.179C-141.395 176.281 -112.056 183.107 -82.4141 188.03C-26.1909 197.366 29.7566 196.194 85.4283 183.81C140.797 171.482 193.697 150.121 244.764 125.754C304.93 97.0573 363.153 64.4577 423.443 35.995C425.235 35.1538 423.677 32.5337 421.899 33.3473C318.138 81.378 220.499 144.233 109.294 174.585C54.5731 189.52 -1.74661 195.242 -58.1766 188.347C-88.177 184.679 -117.75 178.281 -147.171 171.468C-171.933 165.732 -196.515 159.637 -220.628 151.556C-276.521 132.829 -328.87 105.18 -374.229 67.4087C-375.097 66.6916 -376.338 67.8914 -375.483 68.6636Z" fill="white"/>
<path d="M-375.483 59.0657C-337.032 93.5132 -291.107 118.735 -243.06 137.145C-219.429 146.205 -195.178 153.596 -170.582 159.581C-141.395 166.683 -112.056 173.509 -82.4141 178.432C-26.1909 187.768 29.7566 186.596 85.4283 174.213C140.797 161.884 193.697 140.523 244.764 116.156C304.93 87.4594 363.153 54.8598 423.443 26.3971C425.235 25.5559 423.677 22.9358 421.899 23.7494C318.138 71.7801 220.499 134.635 109.294 164.987C54.5731 179.922 -1.74661 185.645 -58.1766 178.749C-88.177 175.081 -117.75 168.683 -147.171 161.87C-171.933 156.134 -196.515 150.039 -220.628 141.958C-276.521 123.231 -328.87 95.5955 -374.229 57.8108C-375.097 57.0937 -376.338 58.2935 -375.483 59.0657Z" fill="white"/>
<path d="M-375.483 48.9163C-337.032 83.3638 -291.107 108.586 -243.06 126.995C-219.429 136.056 -195.178 143.447 -170.582 149.432C-141.395 156.534 -112.056 163.36 -82.4141 168.283C-26.1909 177.619 29.7566 176.447 85.4283 164.063C140.797 151.735 193.697 130.374 244.764 106.007C304.93 77.31 363.153 44.7103 423.443 16.2477C425.235 15.4065 423.677 12.7864 421.899 13.6C318.125 61.6307 220.485 124.499 109.28 154.851C54.5593 169.786 -1.76038 175.509 -58.1904 168.614C-88.1908 164.946 -117.764 158.547 -147.185 151.735C-171.947 145.998 -196.529 139.903 -220.642 131.822C-276.521 113.081 -328.87 85.4323 -374.229 47.6614C-375.097 46.9443 -376.338 48.144 -375.483 48.9163Z" fill="white"/>
<path d="M-375.483 35.471C-337.032 69.9185 -291.107 95.1405 -243.06 113.55C-219.429 122.61 -195.178 130.002 -170.582 135.987C-141.395 143.088 -112.056 149.915 -82.4141 154.838C-26.1909 164.173 29.7566 163.001 85.4283 150.618C140.797 138.29 193.697 116.929 244.764 92.5618C304.93 63.8647 363.153 31.265 423.443 2.80238C425.235 1.96119 423.677 -0.658919 421.899 0.154693C318.138 48.1854 220.499 111.04 109.294 141.392C54.5731 156.327 -1.74661 162.05 -58.1766 155.155C-88.177 151.487 -117.75 145.088 -147.171 138.276C-171.933 132.539 -196.515 126.444 -220.628 118.363C-276.521 99.636 -328.87 71.987 -374.229 34.2161C-375.097 33.499 -376.338 34.6987 -375.483 35.471Z" fill="white"/>
<path d="M295.293 55.2873C216.763 88.1903 139.129 124.113 54.5456 138.621C10.4273 146.191 -34.1321 147.005 -78.4848 140.937C-120.756 135.145 -163.867 126.196 -204.304 112.433C-251.594 96.3402 -290.9 65.9608 -332.11 38.6427C-333.667 37.6085 -335.074 40.0907 -333.571 41.1387C-298.152 65.5057 -262.72 92.5066 -222.696 108.862C-181.887 125.534 -137.107 134.746 -93.7194 141.82C-50.511 148.853 -7.08212 150.246 36.3606 144.523C78.6865 138.938 120.047 127.616 160.278 113.536C206.492 97.3607 251.809 78.0133 296.079 57.1214C297.086 56.6387 296.355 54.846 295.307 55.2873H295.293Z" fill="white"/>
<path d="M270.16 51.3709C229.888 70.87 187.907 86.1907 144.947 98.5604C102.497 110.792 58.9298 122.886 15.17 129.312C-55.0883 139.627 -129.965 126.513 -195.315 99.8567C-213.583 92.41 -231.341 83.6258 -248.133 73.2419C-266.442 61.8927 -282.27 48.0475 -298.511 33.9954C-299.917 32.7819 -301.971 34.7952 -300.565 36.0501C-286.585 48.5715 -272.771 60.8722 -257.081 71.2561C-242.37 80.9919 -226.805 89.3762 -210.757 96.6712C-177.186 111.937 -141.505 122.638 -105.218 129.078C-70.5159 135.228 -34.8629 137.752 0.28006 134.359C43.6262 130.181 86.6278 117.908 128.499 106.421C177.456 92.9892 226.207 76.979 271.042 52.8602C272.035 52.3224 271.166 50.8882 270.174 51.3709H270.16Z" fill="white"/>
<path d="M-247.072 55.8251C-200.927 95.7611 -138.21 108.613 -79.2016 114.998C-45.0789 118.694 -10.8873 121.08 23.2906 116.722C57.4684 112.364 90.1711 102.904 122.088 90.907C158.306 77.31 193.435 60.7757 228.096 43.6761C229.833 42.8211 228.316 40.2837 226.593 41.0974C165.779 69.9185 104.51 99.9808 37.5876 111.537C3.85095 117.356 -29.6375 116.653 -63.6086 113.592C-93.9812 110.847 -124.368 106.848 -153.913 99.0845C-187.278 90.3278 -218.822 76.193 -246.01 54.7633C-246.741 54.1841 -247.775 55.177 -247.058 55.8113L-247.072 55.8251Z" fill="white"/>
<path d="M-228.969 54.2668C-215.21 72.9247 -191.193 80.1231 -169.934 86.4252C-142.594 94.5337 -114.62 100.463 -86.3433 104.145C-58.0663 107.827 -27.7763 109.634 1.49341 108.255C30.7631 106.876 57.7717 100.174 84.9872 89.6245C116.104 77.5582 146.987 64.7059 177.25 50.64C178.876 49.8816 177.456 47.5373 175.857 48.2544C149.221 60.0448 122.515 71.6285 95.4377 82.3709C68.6359 93.0168 42.3028 102.049 13.3777 104.559C-41.4943 109.33 -98.3655 102.435 -151.556 88.7833C-178.73 81.8055 -208.068 74.4278 -228.308 53.7428C-228.625 53.4118 -229.259 53.8531 -228.969 54.253V54.2668Z" fill="white"/>
<path d="M-197.728 56.2526C-167.162 82.1089 -125.402 87.5422 -87.0603 92.3411C-41.0256 98.1053 6.70477 100.781 51.3469 85.7219C75.0467 77.7237 98.7741 66.2228 119.951 52.9154C121.357 52.0328 120.13 50.0057 118.655 50.709C98.5535 60.2793 79.7481 71.9318 58.8608 79.9163C37.3532 88.1489 14.8391 92.4928 -8.14377 93.6925C-31.1266 94.8923 -52.262 93.4029 -74.1557 91.0035C-94.7396 88.7557 -115.489 86.2459 -135.714 81.6676C-157.649 76.717 -178.702 68.6498 -196.639 54.846C-197.439 54.2254 -198.5 55.6044 -197.728 56.2526Z" fill="white"/>
<path d="M-171.712 55.6045C-131.151 77.9995 -81.7247 86.5769 -35.8004 85.4185C9.93094 84.274 59.4123 73.4212 98.7051 49.137C99.9735 48.3509 98.8706 46.5031 97.547 47.1512C76.4944 57.3696 55.676 66.733 32.9827 72.7593C10.1791 78.8131 -13.3276 82.0951 -36.9171 82.633C-60.1344 83.157 -83.3929 80.9919 -106.1 76.1654C-128.807 71.3389 -149.929 63.3683 -171.188 54.4185C-171.878 54.1289 -172.333 55.2597 -171.685 55.6183L-171.712 55.6045Z" fill="white"/>
<path d="M-379.344 158.285C-303.171 214.479 -209.392 241.384 -116.495 252.912C-62.2988 259.642 -7.63361 261.366 46.9214 261.628C74.1093 261.766 101.297 261.531 128.499 261.366C142.093 261.283 155.673 261.228 169.267 261.241C181.579 261.241 195.214 261.007 204.451 270.536C222.733 289.415 211.62 317.326 197.82 334.908C184.019 352.49 166.592 368.225 148.614 381.863C113.375 408.616 73.282 428.239 32.7898 445.669C-56.1085 483.964 -148.371 516.799 -229.976 569.959C-266.415 593.692 -301.089 623.713 -320.859 663.18C-338.507 698.413 -345.29 741.7 -331.296 779.347C-327.905 788.476 -323.272 797.012 -317.606 804.941C-316.613 806.334 -314.297 805.024 -315.289 803.59C-340.657 766.564 -340.092 718.547 -323.934 677.935C-306.493 634.124 -270.661 600.932 -232.168 575.268C-150.535 520.853 -57.1977 487.729 32.3899 449.338C72.9373 431.962 113.044 412.463 148.517 385.945C165.737 373.065 181.951 358.585 195.958 342.23C208.146 327.985 219.3 310.293 216.846 290.711C214.447 271.57 201.128 259.738 182.158 258.332C155.48 256.346 128.085 258.194 101.339 258.359C46.5767 258.69 -8.26779 258.732 -62.933 254.912C-161.854 248.017 -262.596 227.594 -348.557 176.005C-358.718 169.91 -368.673 163.47 -378.351 156.63C-379.357 155.913 -380.281 157.554 -379.316 158.271L-379.344 158.285Z" fill="white"/>
<path d="M-388.512 184.21C-354.665 212.246 -313.511 229.69 -271.75 242.28C-226.171 256.015 -179.061 265.075 -132.406 274.287C-80.925 284.45 -29.2929 291.428 23.2354 292.393C50.0786 292.89 76.9355 292.2 103.765 290.89C117.414 290.228 131.049 289.415 144.685 288.504C155.19 287.801 166.289 286.16 176.684 288.573C191.795 292.076 195.503 305.907 188.693 319.008C183.012 329.916 173.031 338.549 163.366 345.83C143.926 360.488 122.667 373.134 101.807 385.641C59.0539 411.263 14.7151 434.224 -30.8922 454.316C-117.571 492.528 -214.562 514.937 -290.321 574.303C-322.693 599.677 -350.901 631.67 -367.17 669.785C-385.686 713.182 -384.652 760.565 -376.545 806.265C-374.353 818.649 -371.637 830.908 -368.673 843.126C-368.3 844.657 -365.998 844.009 -366.329 842.478C-377.11 792.089 -386.32 739.135 -370.672 688.691C-357.891 647.473 -330.469 612.377 -297.932 584.701C-223.289 521.198 -124.299 498.347 -36.2002 460.177C9.91718 440.195 54.7799 417.303 98.0158 391.695C119.468 378.995 140.935 365.922 161.229 351.415C175.636 341.113 196.041 325.186 195.6 305.37C195.186 286.96 175.03 283.692 160.553 284.257C134.331 285.305 108.163 287.691 81.9264 288.601C27.2198 290.49 -27.3489 288.656 -81.4765 280.203C-131.454 272.398 -181.349 261.876 -230.541 250.072C-275.018 239.398 -319.536 225.636 -358.967 201.917C-368.755 196.028 -378.227 189.589 -387.34 182.68C-388.209 182.018 -389.367 183.507 -388.512 184.197V184.21Z" fill="white"/>
<path d="M-372.933 653.348C-335.005 572.993 -255.04 525.9 -175.435 494.555C-130.186 476.738 -83.6135 462.576 -38.2407 445.104C6.16711 428.004 49.1411 407.306 90.1021 383.09C110.286 371.162 130.65 358.765 149.193 344.382C157.906 337.625 184.57 317.85 174.078 304.046C167.778 295.744 151.413 298.875 142.286 299.123C130.47 299.44 118.655 299.909 106.839 300.323C39.0904 302.694 -28.7414 302.584 -96.1458 294.517C-185.982 283.747 -274.411 259.532 -355.272 218.479C-366.025 213.018 -376.628 207.254 -387.092 201.269C-388.746 200.317 -390.235 202.868 -388.581 203.82C-311.181 248.306 -225.66 276.852 -137.741 291.469C-68.0204 303.053 2.66525 305.963 73.2407 304.335C97.9055 303.77 122.557 302.557 147.221 302.005C152.13 301.895 157.189 301.522 162.098 301.881C172.3 302.639 175.237 310.872 170.246 319.146C167.185 324.234 162.594 328.647 158.306 332.702C141.307 348.794 120.309 361.178 100.429 373.355C59.4399 398.48 16.3144 420.158 -28.3278 438.016C-72.6942 455.764 -118.426 469.802 -163.109 486.695C-238.648 515.282 -316.42 555.369 -360.414 626.223C-365.653 634.676 -370.217 643.501 -374.229 652.589C-374.615 653.444 -373.36 654.216 -372.947 653.334L-372.933 653.348Z" fill="white"/>
<path d="M-373.939 615.411C-344.366 584.439 -313.925 553.866 -279.168 528.644C-243.032 502.416 -202.981 485.454 -160.972 471.002C-82.0556 443.863 -3.19421 417.138 70.0834 376.568C86.5313 367.466 102.703 357.882 117.897 346.754C125.852 340.92 134.923 334.853 141.431 327.392C145.029 323.269 147.194 317.16 143.499 312.361C136.867 303.742 122.543 307.383 113.595 308.9C102.717 310.748 91.7703 312.21 80.8097 313.382C17.886 320.125 -46.0579 318.553 -108.844 311.161C-195.205 300.984 -280.284 278.865 -360.345 244.831C-371.182 240.225 -381.922 235.385 -392.607 230.407C-394.275 229.635 -395.736 232.089 -394.068 232.903C-316.889 269.695 -234.084 294.738 -149.722 308.403C-84.813 318.911 -18.6218 322.98 47.0593 319.105C69.7802 317.767 92.4873 315.492 114.919 311.644C121.454 310.527 128.085 308.969 134.703 310.582C140.838 312.085 144.437 316.788 141.031 323.09C138.246 328.247 131.532 332.467 127.093 336.025C111.568 348.491 94.8173 359.22 77.5146 369.038C6.38773 409.443 -70.0885 436.968 -147.24 463.362C-187.291 477.069 -227.081 491.177 -262.83 514.316C-296.346 536.008 -326.043 563.05 -353.672 591.706C-360.869 599.166 -367.942 606.737 -374.932 614.391C-375.538 615.053 -374.56 616.045 -373.939 615.384V615.411Z" fill="white"/>
<path d="M-380.984 260.18C-324.141 290.008 -262.678 310.927 -199.589 322.717C-132.309 335.294 -63.7189 336.301 4.5127 336.77C13.1158 336.825 21.705 336.88 30.3081 336.949C37.822 337.004 52.381 334.494 58.1026 340.038C65.5889 347.291 58.2818 357.592 51.3745 361.798C44.4673 366.004 35.6712 368.569 27.8816 371.562C-4.6694 384.056 -37.248 396.48 -69.8127 408.947C-103.232 421.73 -136.652 434.541 -170.058 447.352C-200.403 458.991 -231.258 469.885 -260.376 484.447C-318.074 513.296 -369.389 556.5 -407.759 608.351C-408.737 609.674 -406.49 611.426 -405.47 610.116C-367.473 561.657 -321.48 520.287 -266.856 491.383C-236.028 475.07 -202.995 463.39 -170.499 450.923C-136.652 437.933 -102.819 424.957 -68.9855 411.939C-35.1524 398.921 -0.47818 385.559 33.7962 372.417C43.8193 368.569 58.0199 365.053 62.6247 354.09C66.4161 345.071 62.1422 335.694 52.2431 334.411C45.1153 333.488 37.4911 334.094 30.3081 334.039C20.8089 333.97 11.2959 333.915 1.79666 333.846C-16.3056 333.722 -34.4079 333.556 -52.5101 333.143C-88.177 332.315 -123.871 330.509 -159.29 326.082C-236.249 316.484 -310.657 293.11 -379.992 258.511C-381.095 257.959 -382.087 259.6 -380.971 260.18H-380.984Z" fill="white"/>
<path d="M-374.242 547.854C-324.554 510.041 -272.536 474.408 -215.624 448.317C-185.154 434.348 -153.307 424.336 -121.472 414.049C-105.19 408.781 -88.9077 403.527 -72.6391 398.204C-59.6656 393.957 -46.6369 389.448 -34.6698 382.801C-27.5006 378.829 -10.8322 370.307 -11.3285 360.351C-11.8248 350.394 -24.109 348.794 -31.6642 348.988C-46.7334 349.374 -61.8026 348.767 -76.8441 347.76C-122.231 344.754 -167.507 338.424 -212.08 329.419C-266.263 318.484 -321.094 303.839 -370.41 278.341C-372.23 277.403 -373.843 280.148 -372.023 281.099C-330.951 302.336 -286.061 315.864 -241.171 326.358C-196.777 336.728 -151.611 344.051 -106.252 348.574C-88.7009 350.325 -71.0949 351.663 -53.4752 352.187C-46.8161 352.38 -40.157 352.476 -33.498 352.311C-28.0107 352.173 -21.1862 351.401 -17.2293 356.034C-9.92224 364.612 -26.1771 374.044 -32.3812 377.85C-44.7895 385.476 -58.5764 390.44 -72.3358 395.019C-87.6531 400.135 -103.039 405.085 -118.384 410.119C-147.737 419.744 -177.296 428.928 -205.669 441.215C-267.049 467.802 -322.5 505.78 -375.028 546.806C-375.607 547.261 -374.822 548.295 -374.229 547.84L-374.242 547.854Z" fill="white"/>
<path d="M-373.098 295.813C-292.265 327.296 -206.717 352.463 -120.494 363.26C-115.31 363.908 -110.112 364.501 -104.914 365.039C-99.179 365.632 -92.2717 365.411 -87.1981 368.514C-79.3671 373.313 -81.9453 381.504 -88.9215 385.324C-93.7883 388 -99.372 389.53 -104.597 391.364C-125.802 398.825 -147.102 406.009 -168.334 413.387C-208.413 427.329 -249.443 441.119 -286.544 461.983C-327.008 484.737 -363.627 514.275 -397.225 546.158C-398.701 547.564 -396.481 549.771 -394.992 548.392C-362.234 517.667 -327.16 489.012 -288.129 466.575C-247.72 443.353 -202.609 428.597 -158.725 413.456C-136.528 405.802 -113.821 398.99 -92.0098 390.303C-86.688 388.179 -80.1668 384.828 -78.8846 378.65C-77.5197 372.058 -82.5933 366.666 -88.3424 364.474C-96.5732 361.33 -106.624 361.812 -115.282 360.819C-127.69 359.399 -140.057 357.648 -152.369 355.607C-175.559 351.759 -198.583 346.878 -221.4 341.21C-272.757 328.454 -322.5 310.982 -372.698 294.462C-373.567 294.172 -373.898 295.496 -373.071 295.827L-373.098 295.813Z" fill="white"/>
<path d="M-369.844 510.855C-333.585 482.075 -294.843 456.908 -252.848 437.313C-231.644 427.425 -209.792 418.903 -187.471 411.856C-176.276 408.312 -164.957 405.21 -153.555 402.355C-143.959 399.956 -133.798 397.46 -125.802 391.295C-120.342 387.089 -117.102 380.898 -121.335 374.54C-125.567 368.183 -134.184 367.204 -141.298 366.115C-153.582 364.226 -165.784 361.854 -177.958 359.385C-211.625 352.545 -245.072 344.616 -278.299 335.901C-311.526 327.185 -346.158 318.277 -378.103 304.57C-379.881 303.811 -381.425 306.418 -379.633 307.19C-354.169 318.139 -327.16 325.71 -300.482 333.06C-267.793 342.051 -234.829 350.077 -201.713 357.317C-188.008 360.309 -174.276 363.191 -160.49 365.756C-155.03 366.777 -149.57 367.742 -144.083 368.597C-141.16 369.052 -138.196 369.383 -135.301 369.962C-126.436 371.741 -117.805 378.912 -125.995 387.779C-133.674 396.081 -148.412 398.094 -158.821 400.742C-169.23 403.389 -180.012 406.492 -190.462 409.857C-210.357 416.255 -229.865 423.826 -248.891 432.486C-292.748 452.454 -334.481 478.145 -370.92 509.766C-371.664 510.414 -370.603 511.434 -369.844 510.841V510.855Z" fill="white"/>
<path d="M-372.767 326C-358.126 329.819 -344.242 336.121 -329.876 340.851C-315.551 345.568 -300.896 349.208 -286.171 352.407C-256.695 358.792 -226.791 363.495 -197.797 371.989C-190.986 373.989 -184.231 376.195 -177.585 378.677C-174.028 380.001 -160.958 383.573 -166.184 390.882C-168.238 393.75 -173.284 394.784 -176.455 395.501C-190.421 398.659 -204.249 401.693 -217.926 406.037C-245.307 414.725 -271.654 426.446 -297.091 439.726C-326.54 455.102 -355.382 472.243 -382.983 490.722C-384.486 491.728 -383.135 494.142 -381.55 493.176C-325.533 459.184 -270.247 423.923 -206.621 405.706C-199.562 403.693 -192.462 401.872 -185.292 400.3C-179.033 398.935 -171.726 398.521 -166.266 394.784C-157.801 388.992 -163.178 381.367 -170.582 378.195C-200.237 365.467 -232.954 360.075 -264.416 353.883C-282.518 350.325 -300.62 346.629 -318.364 341.555C-336.108 336.48 -353.865 328.578 -372.34 324.414C-373.36 324.179 -373.801 325.724 -372.781 326H-372.767Z" fill="white"/>
<path d="M-376.007 340.672C-352.611 352.463 -326.622 359.909 -300.965 364.846C-288.391 367.259 -275.776 368.721 -263.051 370.017C-255.316 370.803 -246.107 371.796 -241.653 379.174C-236.221 388.206 -243.983 393.336 -250.946 397.363C-273.212 410.215 -296.319 421.537 -319.012 433.617C-341.705 445.697 -364.095 457.681 -383.397 473.843C-384.61 474.863 -383.011 476.945 -381.701 476.049C-362.841 463.114 -343.98 450.813 -323.851 439.892C-303.722 428.97 -284.021 419.206 -264.319 408.45C-253.014 402.286 -227.301 392.661 -240.192 375.878C-245.307 369.204 -254.089 367.797 -261.934 367.025C-274.342 365.811 -286.668 364.446 -298.952 362.157C-325.382 357.234 -350.363 348.67 -375.497 339.376C-376.255 339.1 -376.765 340.314 -376.049 340.672H-376.007Z" fill="white"/>
<path d="M-368.411 355.441C-350.818 364.557 -331.089 368.542 -311.76 372.141C-301.213 374.099 -290.638 375.906 -280.147 378.14C-275.624 379.105 -270.923 379.919 -266.525 381.408C-264.609 381.96 -262.899 382.897 -261.382 384.207L-261.52 390.22C-262.444 391.999 -266.291 393.212 -268.055 394.012C-307.141 411.677 -345.759 431.383 -381.315 455.529C-382.708 456.481 -381.453 458.715 -379.978 457.819C-358.925 444.87 -337.859 432.059 -315.979 420.544C-304.674 414.601 -293.23 408.919 -281.649 403.527C-276.245 401.017 -270.73 398.728 -265.353 396.15C-262.472 394.77 -259.246 393.226 -257.798 390.192C-255.289 384.924 -259.535 380.939 -264.099 379.05C-274.356 374.789 -286.709 373.617 -297.559 371.658C-321.535 367.342 -345.028 362.833 -367.832 354.035C-368.645 353.718 -369.196 355.041 -368.424 355.441H-368.411Z" fill="white"/>
<path d="M-372.754 376.085C-359.049 378.374 -345.138 379.45 -331.406 381.67C-324.527 382.787 -317.661 384.042 -310.836 385.462C-308.575 385.931 -304.053 386.29 -302.316 387.972L-299.752 395.239L-301.696 397.542C-303.129 398.907 -304.963 399.873 -306.686 400.81C-332.62 415 -360.842 424.984 -386.609 439.464C-387.726 440.085 -386.968 442.098 -385.713 441.588C-368.686 434.734 -352.294 425.895 -335.736 417.965C-326.65 413.608 -317.551 409.305 -308.479 404.906C-304.122 402.796 -298.097 400.204 -296.512 395.074C-292.913 383.421 -312.408 382.139 -319.053 380.939C-336.535 377.767 -354.775 374.623 -372.588 374.885C-373.25 374.885 -373.457 375.975 -372.754 376.085Z" fill="white"/>
<path d="M-373.346 391.778C-367.197 391.544 -361.062 391.144 -354.913 390.868C-352.845 390.771 -350.722 390.633 -348.654 390.799C-343.153 390.578 -340.892 394.053 -341.843 401.252C-342.739 401.803 -343.649 402.327 -344.573 402.81C-354.362 408.271 -364.716 412.422 -374.67 417.496C-375.787 418.062 -375.015 419.937 -373.815 419.524C-365.157 416.6 -356.816 412.215 -348.723 407.981C-344.559 405.802 -336.508 403.113 -336.452 397.28C-336.328 382.773 -366.177 389.682 -373.333 390.427C-374.16 390.509 -374.201 391.792 -373.333 391.764L-373.346 391.778Z" fill="white"/>
<path d="M-320.404 769.68C-330.455 733.219 -321.37 694.263 -302.302 662.339C-282.973 629.973 -253.4 605.096 -222.379 584.397C-155.747 539.952 -81.38 505.008 -6.48932 477.028C32.0177 462.645 71.4483 449.503 112.216 443.339C154.915 436.885 197.475 440.843 239.856 447.628C322.95 460.949 405.754 480.2 490.365 479.855C568.385 479.538 649.646 461.197 711.149 410.877C712.735 409.581 710.474 407.375 708.916 408.643C576.078 515.682 395.497 469.595 243.358 444.883C201.418 438.071 159.23 433.741 116.89 439.478C76.7012 444.925 37.8358 457.391 -0.119751 471.305C-75.1346 498.775 -148.743 533.416 -216.065 576.578C-249.857 598.243 -282.449 624.264 -303.653 658.919C-323.92 692.029 -333.406 732.268 -321.976 770.094C-321.673 771.115 -320.101 770.687 -320.377 769.653L-320.404 769.68Z" fill="white"/>
<path d="M-312.298 781.098C-322.348 744.638 -313.263 705.681 -294.195 673.757C-275.128 641.833 -245.293 616.514 -214.272 595.815C-147.64 551.37 -73.2733 516.426 1.61743 488.446C40.1244 474.063 79.5551 460.921 120.323 454.757C161.091 448.593 205.582 452.261 247.963 459.046C331.057 472.367 413.861 491.618 498.472 491.273C576.492 490.956 657.752 472.615 719.256 422.295C720.841 420.999 718.58 418.793 717.022 420.061C584.185 527.1 403.604 481.013 251.465 456.302C209.525 449.489 167.337 445.159 124.997 450.896C82.6572 456.633 45.9425 468.809 7.98703 482.723C-67.0278 510.193 -140.636 544.834 -207.958 587.997C-241.75 609.661 -274.342 635.682 -295.547 670.337C-316.751 704.991 -325.299 743.686 -313.869 781.512C-313.566 782.533 -311.994 782.105 -312.27 781.071L-312.298 781.098Z" fill="white"/>
<path d="M-305.721 794.751C-315.772 758.29 -306.686 719.333 -287.619 687.409C-268.29 655.044 -238.717 630.166 -207.696 609.468C-141.064 565.022 -66.6969 530.078 8.19385 502.098C46.7008 487.715 86.1315 474.573 126.9 468.409C169.598 461.956 212.158 465.913 254.539 472.698C337.633 486.019 420.437 505.27 505.048 504.925C583.068 504.608 664.329 486.267 725.832 435.948C727.418 434.651 725.157 432.445 723.599 433.714C590.762 540.752 410.18 494.666 258.041 469.954C216.101 463.141 173.913 458.811 131.573 464.548C91.3843 469.995 52.5189 482.461 14.5634 496.375C-60.4514 523.845 -134.06 558.486 -201.382 601.649C-235.173 623.313 -267.766 649.335 -288.97 683.989C-309.237 717.099 -318.722 757.338 -307.293 795.164C-306.99 796.185 -305.418 795.757 -305.694 794.723L-305.721 794.751Z" fill="white"/>
<path d="M-296.898 814.333C-306.948 777.872 -297.863 738.915 -278.795 706.991C-259.466 674.626 -229.893 649.748 -198.872 629.049C-132.24 584.604 -57.8732 549.66 17.0175 521.68C55.5245 507.297 94.9552 494.155 135.723 487.991C178.421 481.537 220.982 485.495 263.363 492.28C346.457 505.601 429.261 524.852 513.872 524.507C591.892 524.19 673.152 505.849 734.656 455.529C736.241 454.233 733.98 452.027 732.422 453.295C599.585 560.334 419.004 514.247 266.865 489.536C224.925 482.723 182.737 478.393 140.397 484.13C98.0572 489.867 61.3426 502.043 23.3871 515.957C-51.6277 543.427 -125.236 578.068 -192.558 621.231C-226.35 642.895 -258.942 668.916 -280.146 703.571C-300.413 736.681 -309.899 776.92 -298.469 814.746C-298.166 815.767 -296.594 815.339 -296.87 814.305L-296.898 814.333Z" fill="white"/>
<path d="M-291.093 826.826C-301.144 790.365 -292.058 751.409 -272.991 719.485C-253.662 687.119 -224.089 662.242 -193.068 641.543C-126.436 597.098 -52.069 562.154 22.8217 534.174C61.3287 519.791 100.759 506.649 141.527 500.485C182.295 494.321 226.786 497.989 269.167 504.774C352.261 518.095 435.065 537.346 519.676 537.001C597.696 536.684 678.957 518.343 740.46 468.023C742.046 466.727 739.785 464.521 738.227 465.789C605.389 572.828 424.808 526.741 272.669 502.029C230.729 495.217 188.541 490.887 146.201 496.624C103.862 502.36 67.1468 514.537 29.1913 528.451C-45.8235 555.921 -119.432 590.561 -186.754 633.724C-220.546 655.388 -253.138 681.41 -274.342 716.065C-294.609 749.174 -304.094 789.414 -292.665 827.24C-292.362 828.26 -290.79 827.833 -291.066 826.799L-291.093 826.826Z" fill="white"/>
<path d="M701.871 398.99C634.659 447.462 552.172 466.175 470.264 465.403C423.154 464.962 376.333 458.632 330.092 450C307.274 445.738 284.553 440.912 261.888 435.934C239.222 430.956 216.777 427.315 195.669 419.441C168.357 409.264 183.495 381.449 200.853 370.072C214.833 360.916 231.019 353.911 238.188 337.707C245.081 322.111 242.793 304.349 243.771 287.815C245.054 266.123 254.663 249.699 272.903 237.812C307.026 215.583 350.538 210.494 389.624 202.468C426.435 194.911 463.219 187.12 500.264 180.79C537.31 174.461 574.52 169.372 612.007 168.531C643.345 167.828 675.937 169.786 705.497 181.052C712.128 183.59 718.525 186.665 724.633 190.278C726.398 191.326 727.997 188.568 726.232 187.534C700.092 172.13 669.209 167.042 639.305 165.635C601.626 163.87 563.794 167.869 526.57 173.371C486.877 179.246 447.543 187.272 408.264 195.38C367.454 203.806 324.191 209.143 286.125 226.918C270.091 234.406 254.125 245.314 246.35 261.807C238.574 278.3 241.014 297.413 239.828 315.271C239.098 326.317 236.644 337.487 229.226 346.078C222.512 353.855 213.247 358.765 204.589 364.005C191.381 372.017 177.222 383.697 177.098 400.659C176.946 420.158 199.185 424.157 213.95 428.018C237.747 434.224 261.874 439.257 285.932 444.332C333.594 454.385 381.669 463.114 430.295 466.699C514.92 472.932 604.604 462.576 678.281 417.579C686.857 412.339 695.046 406.561 702.974 400.397C703.773 399.776 702.712 398.383 701.884 398.99H701.871Z" fill="white"/>
<path d="M694.15 188.32C649.122 170.282 599.351 174.295 552.379 180.901C500.678 188.168 449.39 198.442 398.847 211.556C373.783 218.065 348.897 225.277 324.232 233.179C305.413 239.205 282.237 244.169 267.444 258.263C251.63 273.335 256.469 294.351 254.746 313.878C252.595 338.093 239.498 359.302 220.306 373.768C214.447 378.181 207.126 383.187 205.582 390.882C203.941 399.087 210.393 405.044 216.432 409.388C232.273 420.806 251.506 424.226 270.284 427.66C285.132 430.39 299.816 434.155 314.609 437.189C371.701 448.91 429.964 456.77 488.338 456.04C553.44 455.226 622.43 443.711 676.544 405.154C683.024 400.535 689.145 395.543 694.991 390.151C696.383 388.868 694.329 386.869 692.923 388.082C643.221 431.149 578.395 447.931 513.954 451.834C455.126 455.391 395.911 449.145 338.074 438.471C319.627 435.065 301.305 431.08 282.968 427.081C277.439 425.881 271.924 424.764 266.355 423.826C255.504 422.006 244.626 419.717 234.383 415.649C224.139 411.581 202.411 401.39 209.8 387.903C214.474 379.353 224.952 374.623 231.805 367.963C238.657 361.302 244.227 353.69 248.5 345.306C252.774 336.921 255.711 327.834 257.048 318.498C258.468 308.624 257.545 298.695 258 288.766C258.551 276.797 262.232 266.137 271.607 258.304C279.604 251.616 289.641 247.755 299.361 244.376C322.771 236.213 346.526 228.931 370.377 222.188C417.68 208.798 465.7 197.931 514.161 189.644C562.622 181.356 612.076 172.82 660.399 181.025C671.774 182.955 682.9 185.851 693.764 189.768C694.688 190.099 695.046 188.665 694.164 188.306L694.15 188.32Z" fill="white"/>
<path d="M695.97 193.284C662.151 178.032 624.443 179.991 588.459 184.21C547.719 188.982 507.475 197.366 467.658 207.129C427.317 217.031 387.321 228.297 347.27 239.233C318.924 246.983 272.338 253.243 273.193 291.745C273.4 301.288 274.654 310.472 273.193 320.001C271.732 329.53 268.312 339.445 263.349 348.105C258.786 356.089 252.719 362.35 246.543 369.038C242.324 373.589 238.091 378.774 237.402 385.186C236.051 397.763 248.211 405.747 258.524 409.595C271.152 414.311 284.677 417.193 297.789 420.158C357.996 433.796 420.644 439.547 482.327 439.188C522.585 438.954 562.167 434.196 600.523 421.606C638.878 409.016 673.897 391.171 708.64 372.362C710.308 371.465 708.833 368.997 707.165 369.838C676.544 385.324 646.254 401.486 614.034 413.484C582.2 425.343 549.001 432.693 515.071 434.913C481.142 437.133 445.488 435.865 410.869 433.231C384.826 431.245 358.672 428.846 332.918 424.364C318.152 421.785 303.469 418.751 288.91 415.249C276.971 412.38 263.445 409.981 252.623 403.941C245.219 399.804 238.284 392.854 240.38 383.642C242.352 374.968 250.844 368.9 256.373 362.516C266.065 351.318 272.669 337.487 275.344 322.911C276.764 315.119 276.86 307.411 276.309 299.523C275.606 289.415 275.357 279.775 281.424 271.088C292.536 255.174 313.52 251.147 331.029 246.362C368.998 235.964 406.913 225.332 445.02 215.472C487.194 204.551 529.741 194.76 572.908 188.637C613.345 182.914 656.815 178.088 695.515 194.346C696.108 194.594 696.549 193.56 695.956 193.298L695.97 193.284Z" fill="white"/>
<path d="M686.746 196.47C612.752 178.405 535.834 198.938 464.197 217.858C445.392 222.822 426.6 227.801 407.643 232.158C390.382 236.13 372.9 239.012 355.611 242.859C330.588 248.417 290.633 259.614 286.428 289.856C285.325 297.799 286.387 305.825 286.635 313.782C286.925 322.855 285.863 331.805 283.023 340.451C280.183 349.098 275.661 356.448 270.311 363.715C266.506 368.887 262.246 374.554 261.929 381.229C261.295 394.439 276.061 400.162 286.208 404.01C301.511 409.802 317.587 413.566 333.676 416.435C364.807 421.992 396.738 423.991 428.296 425.398C451.541 426.432 474.731 426.06 497.962 425.095C537.475 423.454 575.927 416.076 613.262 402.975C651.865 389.42 685.795 368.928 719.022 345.278C720.4 344.299 719.118 342.01 717.684 342.975C688.828 362.378 660.468 381.725 627.862 394.412C595.353 407.044 561.395 416.242 526.666 420.034C474.937 425.674 422.257 422.874 370.611 418.2C340.666 415.483 309.384 410.684 281.548 398.797C274.13 395.625 264.562 390.758 265.045 381.242C265.5 372.375 273.634 365.177 278.101 358.089C285.56 346.285 289.599 332.467 289.737 318.498C289.82 310.61 288.621 302.749 288.938 294.862C289.379 283.926 293.859 275.362 302.27 268.44C314.678 258.221 330.078 252.347 345.436 248.237C360.795 244.128 377.064 241.604 392.864 238.295C410.166 234.668 427.317 230.407 444.427 225.953C523.716 205.337 603.956 181.825 686.415 197.738C687.229 197.89 687.587 196.677 686.76 196.483L686.746 196.47Z" fill="white"/>
<path d="M679.812 201.669C644.048 194.167 607.333 198.883 571.667 204.689C536 210.494 498.099 218.782 461.991 228.738C425.883 238.695 389.031 250.044 352.606 260.855C330.74 267.35 294.701 273.846 298.961 304.197C300.326 313.906 301.704 322.345 299.25 332.053C297.058 340.727 292.867 348.56 289.365 356.724C284.429 368.197 283.175 380.953 294.011 389.379C303.083 396.439 315.326 397.97 326.314 399.804C334.697 401.21 343.065 402.658 351.461 403.996C398.82 411.608 446.481 414.352 494.432 413.208C533.256 412.284 570.771 409.733 607.568 396.384C644.365 383.035 675.813 364.157 707.096 343.21C708.805 342.065 707.192 339.293 705.483 340.438C678.364 358.599 650.197 375.561 619.976 388.096C589.066 400.921 557.632 407.278 524.281 409.016C473.779 411.636 423.126 411.25 372.969 404.423C356.439 402.176 340.018 399.294 323.557 396.549C312.086 394.633 296.286 392.288 290.247 380.898C285.436 371.81 289.999 361.84 293.901 353.4C297.003 346.698 300.091 339.996 301.911 332.812C303.552 326.33 304.131 319.711 303.221 313.064C302.008 304.129 299.347 295.413 304.351 287.084C311.562 275.087 327.9 271.101 340.363 267.392C374.748 257.173 409.091 246.776 443.544 236.806C480.838 226.008 518.518 216.782 556.722 209.846C597.035 202.524 638.616 195.794 679.439 203.006C680.294 203.158 680.68 201.862 679.798 201.682L679.812 201.669Z" fill="white"/>
<path d="M684.871 340.314C643.428 376.209 592.871 395.074 538.316 397.46C509.377 398.728 480.314 398.383 451.348 398.659C420.851 398.949 390.658 398.273 360.685 392.081C347.063 389.268 333.621 385.559 320.496 380.967C316.842 379.684 312.5 378.512 309.811 375.547C306.516 371.893 306.612 366.901 307.509 362.433C308.832 355.814 311.879 349.636 313.685 343.141C317.284 330.206 315.353 316.498 318.979 303.756C322.426 291.69 332.449 283.443 343.148 277.79C354.674 271.694 367.509 268.219 379.863 264.234C393.636 259.78 407.45 255.436 421.32 251.271C449.045 242.928 476.992 235.275 505.241 228.863C568.826 214.424 634.232 206.399 699.403 212.411C701.388 212.59 701.374 209.501 699.403 209.322C638.354 203.641 576.988 210.329 517.208 223.029C485.898 229.69 454.946 237.964 424.284 247.121C409.146 251.63 394.077 256.36 379.035 261.214C366.724 265.199 354.026 268.716 342.459 274.632C333.139 279.403 324.218 285.981 319.076 295.303C312.555 307.107 314.774 320.87 312.541 333.694C310.5 345.361 302.118 358.103 303.924 370.141C305.647 381.601 319.076 384.069 328.299 386.979C389.196 406.244 452.989 401.955 515.967 401.155C548.215 400.742 579.925 398.328 610.546 387.489C638.644 377.533 664.536 362.129 686.443 341.886C687.491 340.907 685.947 339.403 684.885 340.327L684.871 340.314Z" fill="white"/>
<path d="M681.245 220.147C620.665 218.616 559.589 227.208 500.609 240.515C470.98 247.203 441.669 255.312 412.744 264.579C398.185 269.24 383.654 274.08 369.315 279.417C358.589 283.416 347.56 288.173 339.522 296.599C331.484 305.025 327.886 316.581 325.459 327.903C323.157 338.617 320.041 351.001 324.232 361.647C327.899 370.955 336.627 375.947 345.85 378.526C358.258 382.001 371.77 382.842 384.536 384.18C444.027 390.44 504.841 390.123 564.084 381.463C591.754 377.423 619.769 371.3 644.434 357.634C664.508 346.519 679.77 329.585 695.915 313.63C697.252 312.306 695.211 310.279 693.847 311.561C679.977 324.593 667.403 339.141 651.41 349.705C631.847 362.626 609.305 369.604 586.515 374.265C532.87 385.242 476.674 386.924 422.133 383.918C408.277 383.159 394.449 382.015 380.676 380.484C367.785 379.05 353.585 378.498 341.424 373.561C326.603 367.521 324.108 354.035 326.411 339.5C328.341 327.31 330.809 313.782 337.95 303.467C345.492 292.559 358.148 286.919 370.156 282.437C383.268 277.555 396.558 273.101 409.863 268.785C436.692 260.083 463.853 252.375 491.289 245.81C553.771 230.876 617.067 223.36 681.259 221.94C682.417 221.912 682.417 220.175 681.259 220.147H681.245Z" fill="white"/>
<path d="M680.584 227.897C627.021 227.952 573.555 234.185 521.165 245.231C494.377 250.885 467.878 257.822 441.766 266.054C417.156 273.804 392.326 282.147 369.164 293.607C351.599 302.308 332.105 316.871 333.745 338.935C335.386 361.164 358.837 367.714 377.45 368.666C432.143 371.465 487.635 367.494 541.694 359.054C595.752 350.615 652.058 341.21 693.074 305.48C694.563 304.184 692.399 302.046 690.924 303.329C656.608 333.019 610.711 343.347 567.241 351.511C516.946 360.957 465.797 365.811 414.62 366.087C402.239 366.156 389.817 366.087 377.45 365.439C365.083 364.791 349.972 362.502 341.631 351.511C333.29 340.52 336.475 326.013 344.127 315.878C351.117 306.625 361.416 300.667 371.659 295.661C394.311 284.588 418.521 276.438 442.524 268.854C466.527 261.269 489.234 255.201 512.989 249.892C568.068 237.592 624.209 231.207 680.57 229.042C681.287 229.014 681.301 227.911 680.57 227.911L680.584 227.897Z" fill="white"/>
<path d="M679.026 235.206C629.641 235.578 579.773 242.611 531.561 252.968C483.348 263.324 436.238 276.962 391.458 296.213C375.74 302.97 351.434 313.933 349.132 333.543C346.471 356.214 371.218 356.42 387.156 356.972C439.064 358.765 491.482 352.973 542.962 346.864C570.922 343.54 598.62 338.59 625.119 328.84C651.438 319.16 677.316 307.093 702.395 294.544C703.677 293.91 702.767 291.635 701.402 292.2C679.881 301.122 659.062 311.63 637.527 320.511C615.992 329.392 594.029 335.666 571.17 339.597C548.312 343.527 523.302 345.788 499.313 348.16C475.324 350.532 451.638 352.656 427.703 353.552C415.543 354.007 403.356 354.145 391.196 353.828C380.731 353.552 364.518 355.386 356.549 347.443C346.595 337.5 354.77 323.242 363.442 315.823C371.756 308.721 381.889 303.687 391.844 299.33C433.839 280.948 478.867 267.875 523.523 257.766C574.852 246.141 626.608 240.46 679.026 236.985C680.142 236.916 680.17 235.22 679.026 235.234V235.206Z" fill="white"/>
<path d="M684.347 245.645C638.947 244.749 592.32 251.823 547.898 260.621C503.476 269.419 457.759 281.596 415.102 298.654C406.058 302.267 397.165 306.294 388.755 311.23C382.055 315.161 372.555 320.18 369.178 327.613C366.737 332.964 368.847 338.604 373.672 341.789C381.172 346.74 392.009 344.285 400.322 343.651C448.398 339.983 496.459 336.218 544.52 332.481C570.481 330.454 596.014 327.668 621.038 320.097C646.061 312.527 672.477 302.336 697.79 292.669C699.568 291.993 698.838 289.139 696.99 289.773C655.036 304.432 614.461 322.166 569.874 326.992C525.287 331.819 483.113 333.998 439.781 337.349C428.903 338.19 418.011 339.031 407.133 339.886C398.117 340.589 381.558 344.988 374.113 338.162C359.003 324.303 411.628 303.301 420.424 299.923C459.055 285.112 499.285 273.873 539.736 265.323C563.463 260.318 587.398 256.305 611.47 253.34C635.721 250.347 660.041 249.189 684.361 246.996C685.216 246.914 685.244 245.659 684.361 245.645H684.347Z" fill="white"/>
<path d="M687.256 256.387C659.986 254.429 631.902 257.201 604.824 260.428C577.747 263.655 553.482 268.012 528.21 273.887C502.939 279.762 476.509 287.456 451.306 296.282C429.165 304.032 402.694 311.244 385.557 328.109C384.853 328.799 385.088 329.888 385.846 330.399C392.05 334.591 399.095 334.411 406.251 333.101C416.426 331.24 426.421 328.592 436.637 326.882C459.289 323.09 482.203 321.242 505.089 319.697C548.877 316.76 592.761 314.581 635.555 304.06C660.399 297.951 685.147 290.352 709.15 281.513C710.763 280.92 710.129 278.396 708.433 278.893C682.114 286.712 656.346 295.992 629.558 302.225C601.97 308.652 573.859 311.768 545.637 313.864C518.656 315.864 491.592 317.119 464.694 320.097C452.023 321.504 439.395 323.255 426.876 325.655C414.357 328.054 398.447 335.363 387.335 327.875L387.625 330.164C396.945 320.994 408.664 315.685 420.631 310.858C432.598 306.032 444.744 301.536 456.959 297.33C481.403 288.918 506.275 281.761 531.45 275.887C557.342 269.846 583.565 265.227 609.967 262.165C635.707 259.173 661.461 258.773 687.27 256.994C687.656 256.967 687.656 256.415 687.27 256.387H687.256Z" fill="white"/>
<path d="M687.105 262C657.421 265.516 627.862 270.067 598.275 274.328C582.834 276.548 567.393 278.782 551.965 281.03C539.143 282.892 525.963 284.326 513.789 289.015C509.363 290.725 494.17 296.448 498.375 304.004C501.077 308.859 512.589 307.714 516.96 307.811C545.003 308.431 572.976 305.066 600.426 299.481C632.646 292.917 664.191 283.471 695.763 274.37C697.624 273.832 696.824 270.922 694.963 271.46C646.392 285.471 597.531 300.433 546.836 304.115C534.593 304.997 522.171 305.425 509.901 304.68C508.247 304.584 505.806 304.694 504.29 304.046C498.954 301.784 502.401 298.254 505.641 296.061C510.797 292.559 517.249 290.545 523.219 288.946C534.607 285.884 546.478 284.602 558.114 282.892C571.267 280.948 584.42 278.976 597.572 277.017C627.476 272.563 657.449 268.385 687.243 263.172C687.891 263.062 687.753 261.945 687.091 262.014L687.105 262Z" fill="white"/>
<path d="M-284.103 766.026C-260.9 705.598 -209.874 662.559 -155.705 630.084C-123.789 610.957 -90.3278 594.45 -56.8944 578.178C-23.7781 562.057 9.77933 546.695 44.5225 534.408C112.065 510.538 184.267 499.947 254.015 520.922C318.552 540.338 374.665 580.908 424.091 625.657C483.513 679.48 536.069 740.68 599.227 790.379C600.867 791.675 603.211 789.359 601.543 788.062C491.289 701.295 408.401 573.462 272.104 523.528C240.132 511.807 206.436 505.711 172.355 506.015C135.985 506.332 99.9598 513.434 65.2994 524.135C30.639 534.836 -4.35233 549.715 -37.8822 565.519C-71.412 581.322 -106.707 598.573 -139.919 617.273C-200.499 651.376 -262.237 697.269 -285.854 765.557C-286.24 766.674 -284.517 767.102 -284.103 766.04V766.026Z" fill="white"/>
<path d="M-271.916 761.461C-238.248 694.028 -170.761 652.934 -106.555 618.528C-70.4056 599.153 -33.3188 581.612 3.7406 564.057C41.7926 546.033 80.3547 529.044 122.391 523.211C178.821 515.378 240.931 523.128 292.288 548.736C327.017 566.057 358.479 589.831 388.397 614.349C447.308 662.656 501.656 716.506 554.75 771.046C556.225 772.562 558.541 770.246 557.066 768.729C507.364 717.678 456.532 667.372 402.004 621.437C370.349 594.767 337.178 568.787 300.519 549.315C254.084 524.645 199.309 514.978 147.097 517.654C106.136 519.75 67.7672 531.581 30.4873 548.157C-6.79266 564.733 -46.9954 584.246 -84.9233 603.703C-156.216 640.288 -238.179 684.306 -273.253 760.662C-273.667 761.558 -272.357 762.358 -271.902 761.448L-271.916 761.461Z" fill="white"/>
<path d="M-260.61 773.886C-228.321 707.556 -163.619 666.352 -101.123 631.849C-65.4148 612.129 -28.7001 594.312 7.97321 576.482C44.481 558.734 81.5266 541.896 122.019 535.87C177.649 527.596 239.125 535.484 289.517 561.382C323.391 578.799 353.943 602.545 382.978 626.995C440.387 675.329 493.233 729.096 544.837 783.498C546.271 785.015 548.56 782.726 547.126 781.209C498.665 730.13 449.101 679.769 395.786 633.697C365.234 607.289 333.18 581.529 297.651 562.071C252.209 537.18 198.233 527.334 146.808 530.189C107.143 532.395 69.9731 544.241 34.0167 560.651C-3.60788 577.82 -40.8051 596.408 -77.4094 615.646C-147.75 652.603 -227.935 697.117 -261.934 773.128C-262.334 774.024 -261.038 774.81 -260.597 773.914L-260.61 773.886Z" fill="white"/>
<path d="M-260.61 789.841C-228.321 723.511 -163.619 682.307 -101.123 647.804C-65.4148 628.084 -28.7001 610.267 7.97321 592.437C44.481 574.689 81.5266 557.852 122.019 551.825C177.649 543.551 239.125 551.439 289.517 577.337C323.391 594.754 353.943 618.5 382.978 642.95C440.387 691.284 493.233 745.051 544.837 799.453C546.271 800.97 548.56 798.681 547.126 797.164C498.665 746.086 449.101 695.724 395.786 649.652C365.234 623.244 333.18 597.484 297.651 578.026C252.209 553.135 198.233 543.289 146.808 546.144C107.143 548.35 69.9731 560.196 34.0167 576.606C-3.60788 593.775 -40.8051 612.364 -77.4094 631.601C-147.75 668.558 -227.935 713.072 -261.934 789.083C-262.334 789.979 -261.038 790.765 -260.597 789.869L-260.61 789.841Z" fill="white"/>
<path d="M-251.139 806.1C-219.608 739.825 -156.036 698.22 -94.1329 663.332C-58.8935 643.474 -22.6614 625.464 13.5569 607.468C49.2651 589.72 85.5938 573.214 125.438 567.629C179.124 560.099 238.188 568.277 286.456 593.788C319.558 611.288 349.297 635.007 377.532 659.374C433.59 707.749 485.085 761.406 535.352 815.67C536.758 817.187 539.019 814.912 537.613 813.409C490.641 762.703 442.566 712.686 390.823 666.779C360.892 640.233 329.471 614.267 294.507 594.547C251.12 570.097 199.502 560.003 150.02 562.209C110.314 563.974 73.2131 575.751 37.3946 592.437C0.252533 609.73 -36.4207 628.539 -72.4874 647.956C-141.629 685.189 -219.567 729.965 -252.449 805.314C-252.835 806.196 -251.552 806.982 -251.125 806.086L-251.139 806.1Z" fill="white"/>
<path d="M-241.24 818.594C-210.536 752.76 -148.523 710.935 -87.5152 675.825C-53.7234 656.368 -18.9528 638.703 15.7904 621.037C50.5335 603.372 87.841 585.707 127.933 580.04C180.503 572.621 238.339 580.964 285.353 606.42C317.794 623.989 346.829 647.694 374.403 672.005C429.302 720.409 479.639 773.997 528.762 828.164C530.14 829.681 532.374 827.433 531.009 825.916C485.14 775.334 438.168 725.414 387.556 679.521C358.327 653.017 327.61 627.064 293.336 607.261C251.161 582.908 200.798 572.662 152.405 574.689C113.471 576.33 77.1561 587.941 42.1373 604.531C5.4364 621.92 -30.7544 640.895 -66.3385 660.477C-134.501 697.958 -210.578 743.01 -242.522 817.821C-242.894 818.69 -241.64 819.476 -241.212 818.58L-241.24 818.594Z" fill="white"/>
<path d="M679.549 512.386C629.903 539.125 575.389 545.909 519.786 548.309C491.716 549.522 463.067 551.687 435.203 546.999C421.692 544.737 409.132 540.38 396.076 536.436C388.024 534.009 377.919 533.043 371.714 540.062C365.414 547.192 369.784 555.962 374.61 562.499C381.793 572.207 389.389 581.805 397.841 590.451C406.292 599.098 415.612 606.861 424.546 614.915C447.308 635.448 470.195 655.857 492.902 676.446C529.796 709.901 565.063 745.451 603.073 777.637C604.521 778.864 606.63 776.824 605.183 775.527C574.396 748.002 544.506 719.512 514.078 691.587C490.213 669.689 465.921 648.231 441.876 626.526C418.562 605.482 392.119 584.894 375.175 558.045C370.184 550.143 370.791 540.642 381.117 538.063C388.121 536.311 395.332 539.4 401.867 541.634C414.123 545.827 426.697 548.888 439.519 550.708C465.162 554.335 491.33 552.473 517.098 551.398C572.397 549.067 632.412 544.282 680.363 513.765C681.232 513.213 680.459 511.903 679.563 512.386H679.549Z" fill="white"/>
<path d="M682.569 524.369C629.282 543.372 574.603 556.266 517.953 559.106C490.186 560.499 462.309 559.686 434.68 556.597C426.352 555.659 412.386 550.474 406.03 558.486C400.102 565.946 404.362 575.489 408.939 582.329C427.869 610.612 454.092 631.366 480.121 652.727C503.215 671.674 526.583 690.319 550.076 708.784C580.463 732.668 610.822 756.442 642.973 777.941C644.614 779.03 646.103 776.424 644.503 775.307C594.181 740.473 546.299 702.344 498.734 663.842C476.688 645.997 453.513 628.498 433.521 608.309C424.822 599.525 416.743 589.431 410.222 578.923C406.017 572.124 402.956 560.623 413.048 557.741C419.183 555.99 428.379 558.844 434.68 559.548C460.627 562.444 486.808 563.34 512.907 562.278C570.84 559.92 629.682 548.488 683.065 525.555C683.727 525.266 683.258 524.135 682.569 524.383V524.369Z" fill="white"/>
<path d="M681.935 535.305C644.462 549.178 606.12 558.1 566.979 565.836C546.671 569.849 526.335 574.124 505.696 576.082C496.321 576.965 486.891 577.378 477.474 577.02C466.61 576.606 456.339 573.944 445.654 572.621C433.714 571.145 424.353 579.736 432.556 590.644C442.993 604.517 457.704 614.942 471.325 625.423C504.442 650.92 537.792 676.142 571.336 701.075C604.728 725.897 638.892 753.973 678.929 767.253C680.391 767.736 680.942 765.529 679.55 764.978C646.351 751.85 617.688 731.992 589.135 710.907C558.073 687.961 527.176 664.793 496.459 641.378C481.376 629.877 465.893 618.707 451.5 606.351C445.406 601.125 437.396 594.933 433.411 587.831C426.849 576.123 440.277 574.096 447.267 575.296C452.148 576.123 456.932 577.337 461.84 578.013C496.376 582.784 531.271 575.296 565.008 568.511C604.549 560.568 645.303 552.818 682.362 536.38C682.969 536.105 682.541 535.07 681.907 535.291L681.935 535.305Z" fill="white"/>
<path d="M679.177 544.448C645.965 555.493 613.207 566.967 579.112 575.117C561.919 579.226 544.575 582.715 527.135 585.597C518.725 586.976 510.301 588.245 501.863 589.348C494.239 590.355 484.575 590.037 477.516 593.499C451.252 606.392 500.995 636.937 510.935 643.667C540.26 663.525 570.385 682.279 600.164 701.461C630.785 721.181 661.889 744.472 697.873 753.187C699.32 753.532 699.927 751.34 698.493 750.953C668.465 742.707 642.849 725.704 616.984 708.963C589.493 691.174 561.975 673.44 534.47 655.692C521.606 647.39 508.605 639.254 496.418 629.973C490.379 625.368 484.506 620.486 479.074 615.177C475.282 611.467 470.25 606.654 473.255 600.38C475.944 594.781 483.706 593.995 489.055 593.32C519.566 589.486 549.801 584.384 579.718 577.213C613.469 569.118 647.798 559.451 679.563 545.289C680.046 545.082 679.701 544.282 679.205 544.448H679.177Z" fill="white"/>
<path d="M679.287 553.066C650.045 564.167 620.9 574.896 590.61 582.867C575.306 586.893 559.837 590.341 544.272 593.195C537.103 594.505 529.906 595.691 522.723 596.96C516.574 598.049 509.308 598.546 503.642 601.373C478.15 614.073 524.846 640.826 533.615 646.425C559.438 662.876 585.619 678.942 613.11 692.47C627.49 699.544 642.228 705.901 657.366 711.169C665.004 713.817 672.808 716.009 680.363 718.919C687.918 721.829 694.701 726.366 702.863 726.986C704.738 727.124 704.656 724.325 702.863 724.104C695.859 723.222 689.876 719.374 683.437 716.768C677.495 714.368 671.346 712.493 665.252 710.507C651.493 706.012 638.037 700.675 624.898 694.621C600.137 683.203 576.52 669.468 553.358 655.113C542.107 648.149 530.843 641.143 519.745 633.945C514.602 630.608 509.405 627.091 505.2 622.596C503.78 621.079 502.401 619.521 501.422 617.673C499.037 613.219 499.092 611.95 501.422 608.006C504.097 603.469 507.282 602.738 512.079 601.718C539.364 595.926 566.8 591.996 593.795 584.728C623.051 576.84 652.32 567.118 679.66 553.935C680.129 553.715 679.798 552.887 679.301 553.08L679.287 553.066Z" fill="white"/>
<path d="M681.631 563.381C657.463 574.055 632.081 581.336 606.575 588.024C594.539 591.182 582.489 594.243 570.522 597.636C560.044 600.601 547.512 602.876 538.15 608.654C532.057 612.419 528.031 619.865 532.374 626.498C534.58 629.863 538.385 632.028 541.708 634.069C547.581 637.682 553.495 641.212 559.396 644.784C580.807 657.733 602.218 670.792 624.719 681.81C648.653 693.518 674.641 703.778 701.347 706.453C702.891 706.605 703.263 703.998 701.719 703.723C679.329 699.737 658.138 693.614 637.348 684.292C616.557 674.97 598.027 664.269 579.07 653.003C569.309 647.197 559.603 641.323 549.869 635.476C545.788 633.021 538.785 630.263 535.876 626.264C528.665 616.335 539.653 610.392 547.498 607.592C568.551 600.077 590.472 594.974 612.021 589.155C636.01 582.674 659.875 575.517 682.155 564.319C682.776 564.002 682.238 563.119 681.618 563.395L681.631 563.381Z" fill="white"/>
<path d="M680.515 573.641C658.69 581.667 637.031 589.886 614.765 596.67C603.639 600.049 592.444 603.166 581.166 606.006C572.866 608.102 560.858 608.682 553.909 614.129C549.539 617.549 547.664 623.63 551.483 628.167C553.523 630.594 556.473 631.794 559.327 633.021C565.587 635.724 571.942 638.234 578.188 640.978C599.034 650.121 618.46 662.339 639.43 671.081C651.341 676.046 663.805 679.549 676.351 682.486C682.445 683.906 688.552 685.244 694.688 686.485C698.865 687.326 702.339 688.098 706.269 686.113C707.909 685.285 706.476 682.941 704.849 683.672C699.43 686.126 690.124 682.348 684.499 681.121C678.391 679.783 672.298 678.363 666.259 676.735C654.182 673.495 642.435 669.399 631.213 663.897C609.512 653.265 588.528 641.847 566.138 632.594C563.091 631.339 559.796 630.346 556.942 628.677C552.475 626.76 551.689 623.009 554.585 617.438C556.501 615.659 558.735 614.446 561.285 613.825C566.759 612.06 572.577 611.136 578.16 609.743C589.865 606.834 601.474 603.621 613.014 600.09C636.079 593.03 659.117 585.018 680.956 574.731C681.562 574.441 681.135 573.407 680.501 573.641H680.515Z" fill="white"/>
<path d="M681.025 582.26C659.131 592.451 637.362 602.255 614.268 609.495C603.128 612.998 591.561 615.011 580.449 618.445C575.058 620.114 572.163 624.388 575.775 629.767C578.133 633.283 582.862 634.814 586.501 636.51C591.906 639.02 597.324 641.529 602.756 643.998C612.972 648.645 623.244 653.154 633.667 657.333C655.312 666.007 677.95 673.729 701.167 676.639C702.698 676.832 703.042 674.239 701.526 673.936C660.717 665.979 623.23 650.396 585.729 632.773C584.337 632.125 581.869 631.477 580.821 630.277C573.418 621.796 582.531 621.148 586.129 620.32C590.996 619.203 595.849 617.976 600.674 616.666C610.325 614.032 619.866 611.026 629.269 607.62C647.288 601.083 665.28 593.388 681.7 583.432C682.459 582.977 681.797 581.888 681.011 582.26H681.025Z" fill="white"/>
<path d="M681.893 591.94C664.136 599.98 646.406 607.882 627.959 614.225C619.425 617.162 610.16 618.941 601.86 622.375C598.51 623.754 595.104 626.54 596.897 630.525C599.02 635.255 607.196 636.91 611.594 638.73C620.211 642.315 628.938 645.625 637.748 648.673C655.285 654.727 673.387 660.298 691.696 663.442C693.323 663.718 694.04 661.36 692.385 660.932C677.592 657.098 662.771 653.665 648.184 649.031C640.918 646.715 633.694 644.219 626.552 641.543C622.582 640.054 618.625 638.509 614.71 636.924C611.511 635.614 604.935 634.207 602.494 631.697C601.129 631.325 600.785 630.263 601.447 628.525C600.399 626.471 600.854 625.34 602.784 625.147C604.397 624.044 607.43 623.644 609.236 623.106C612.903 622.017 616.557 620.872 620.197 619.686C627.463 617.3 634.673 614.722 641.801 611.936C655.726 606.489 669.471 600.394 682.486 593.016C683.189 592.616 682.569 591.637 681.866 591.954L681.893 591.94Z" fill="white"/>
<path d="M682.445 602.118C667.403 606.02 652.706 612.405 638.464 618.555C634.894 620.1 631.337 621.686 627.807 623.313C625.56 624.347 621.617 625.34 619.949 627.409C617.894 629.946 619.039 632.29 621.231 634.359C625.491 638.385 633.156 640.826 638.464 643.088C644.931 645.846 651.576 648.19 658.331 650.121C665.763 652.244 673.318 653.858 680.97 654.961C685.064 655.554 689.876 656.988 692.813 653.334C693.792 652.12 692.234 650.452 691.062 651.582C687.422 655.057 676.365 651.376 672.132 650.521C667.348 649.555 662.605 648.397 657.932 647.032C652.472 645.432 647.081 643.57 641.815 641.433C636.92 639.447 629.586 637.282 625.601 633.807C620.638 629.477 624.154 628.029 628.028 626.223C630.371 625.119 632.729 624.044 635.087 622.968C640.891 620.348 646.737 617.797 652.624 615.342C662.661 611.164 673.001 607.647 682.955 603.276C683.617 602.986 683.134 601.952 682.472 602.118H682.445Z" fill="white"/>
<path d="M681.893 612.515C671.291 615.508 660.799 619.024 650.542 623.078C647.04 624.457 637.513 627.326 637.541 632.194C637.568 637.503 650.569 639.158 653.74 640.04C663.695 642.826 674.311 645.46 684.678 645.804C685.947 645.846 686.264 643.805 684.982 643.543C678.198 642.164 671.319 641.447 664.536 639.957C659.421 638.827 645.413 637.172 643.497 632.166C642.352 629.16 642.807 629.601 645.358 628.194C646.971 627.312 648.625 626.595 650.321 625.878C653.823 624.388 657.394 623.023 660.951 621.672C668.024 618.997 675.165 616.501 682.307 614.005C683.231 613.674 682.858 612.239 681.893 612.515Z" fill="white"/>
<path d="M-187.209 763.957C-148.84 731.372 -108.03 702.992 -63.7051 679.107C-21.324 656.271 22.4772 636.317 66.4024 616.666C89.5507 606.31 113.016 595.223 138.357 591.582C163.697 587.941 189.878 592.658 214.516 599.842C261.364 613.508 306.585 632.993 345.698 662.504C387.239 693.849 421.913 733.082 456.201 771.942C457.552 773.473 459.786 771.225 458.448 769.694C427.152 734.24 395.607 698.551 358.741 668.71C321.103 638.234 278.584 617.48 232.783 602.255C208.877 594.312 184.074 587.541 158.72 587.183C134.372 586.838 111.375 593.899 89.1371 603.248C42.8956 622.678 -3.07007 643.819 -47.4778 667.138C-97.6486 693.463 -146.62 724.201 -188.256 762.896C-188.987 763.571 -187.912 764.592 -187.181 763.971L-187.209 763.957Z" fill="white"/>
<path d="M-163.316 756.125C-81.4628 700.068 6.34634 653.348 99.0085 617.838C119.413 610.019 140.383 602.545 162.552 604.669C180.889 606.42 199.129 610.75 216.846 615.673C256.166 626.595 292.495 646.866 325.321 670.833C366.489 700.909 402.818 737.026 440.69 771.018C442.193 772.369 444.427 770.149 442.91 768.798C378.36 710.852 314.664 643.308 229.681 616.183C212.31 610.64 194.4 606.323 176.408 603.372C157.231 600.228 139.859 600.89 121.109 606.696C97.4091 614.032 74.3574 624.223 51.6364 634.152C28.9156 644.081 5.36746 655.223 -17.2707 666.793C-68.1308 692.815 -117.171 722.256 -163.854 755.215C-164.405 755.601 -163.881 756.525 -163.316 756.125Z" fill="white"/>
<path d="M-148.964 756.566C-112.263 734.86 -75.493 713.417 -37.7719 693.518C-0.83667 674.019 36.719 654.52 75.6396 639.268C114.243 624.14 155.218 615.59 196.344 624.912C237.471 634.235 271.676 654.63 304.241 677.618C341.7 704.067 375.437 735.274 409.036 766.343C410.539 767.736 412.786 765.488 411.283 764.095C352.895 710.094 290.413 650.438 212.792 626.043C173.086 613.563 132.924 616.556 93.7418 629.505C54.0768 642.619 16.3832 662.366 -20.6485 681.493C-64.6289 704.219 -108.099 728.448 -149.639 755.408C-150.356 755.876 -149.708 757.007 -148.964 756.566Z" fill="white"/>
<path d="M-132.474 755.077C-97.6073 737.026 -63.3742 717.995 -27.9142 701.075C7.95944 683.961 44.4121 667.675 81.4991 653.348C118.586 639.02 154.611 631.063 192.87 641.378C226.979 650.576 257.228 670.199 285.973 690.112C303.855 702.495 321.585 715.086 339.384 727.579C356.742 739.77 375.12 751.671 386.287 770.246C387.349 772.011 390.12 770.397 389.058 768.632C380.207 753.918 366.93 743.217 353.143 733.357C336.434 721.415 319.531 709.735 302.711 697.931C272.572 676.763 241.924 654.878 206.933 642.44C171.142 629.711 135.475 631.725 99.7392 643.557C62.087 656.009 25.5516 673.122 -10.2807 689.988C-51.8759 709.556 -93.8986 729.965 -133.054 754.111C-133.674 754.498 -133.122 755.421 -132.474 755.09V755.077Z" fill="white"/>
<path d="M-111.229 758.565C-81.2284 742.183 -50.8005 726.683 -19.7661 712.355C11.9301 697.724 44.2191 683.465 77.3906 672.516C110.562 661.566 143.899 656.106 177.98 662.766C210.766 669.178 240.959 684.472 268.753 702.592C283.878 712.438 298.395 723.167 312.83 733.978C327.913 745.286 343.41 756.332 355.184 771.252C356.466 772.866 358.713 770.591 357.445 768.991C347.325 756.166 334.448 746.265 321.489 736.515C308.529 726.766 294.659 716.327 280.817 706.825C253.147 687.823 223.394 671.054 190.747 662.435C123.122 644.577 57.4684 674.432 -3.16666 701.888C-40.2398 718.671 -76.5546 737.219 -111.739 757.669C-112.318 758 -111.808 758.883 -111.215 758.565H-111.229Z" fill="white"/>
<path d="M-86.1917 755.449C-37.1101 728.82 14.2739 709.997 67.9051 694.773C94.1279 687.326 119.841 681.121 147.29 684.182C174.768 687.243 201.046 697.448 225.09 710.797C251.534 725.483 274.916 744.293 299.333 761.958C300.684 762.937 302.449 760.689 301.139 759.627C259.847 726.214 213.027 692.746 159.768 682.858C133.228 677.935 107.763 680.776 81.9127 687.823C54.0079 695.449 26.1996 703.888 -0.933136 713.955C-30.5889 724.959 -59.6793 738.074 -86.619 754.732C-87.074 755.008 -86.6742 755.697 -86.2054 755.435L-86.1917 755.449Z" fill="white"/>
<path d="M-71.7843 757.283C-50.0837 745.093 -26.3977 735.812 -3.02881 727.4C19.5128 719.278 42.6198 712.617 66.292 708.715C110.052 701.489 156.031 704.371 196.606 723.373C218.004 733.385 235.458 747.589 251.23 765.005C252.278 766.164 254.387 764.592 253.422 763.309C228.951 730.406 187.135 711.735 147.676 705.019C100.332 696.965 52.0225 705.943 7.07706 721.332C-5.79996 725.745 -18.484 730.71 -31.0026 736.005C-45.1066 741.976 -59.5415 747.851 -72.4048 756.263C-73.0389 756.676 -72.4737 757.669 -71.8119 757.283H-71.7843Z" fill="white"/>
<path d="M-52.2895 756.469C-29.8995 748.195 -7.3165 740.349 15.4595 733.233C38.0426 726.173 61.1081 719.843 84.7665 717.871C129.478 714.134 170.328 729.248 202.438 760.289C203.844 761.654 205.913 759.572 204.589 758.138C175.609 726.848 131.959 711.804 89.9091 714.424C65.9474 715.913 42.5509 722.008 19.7335 729.179C-4.75214 736.888 -28.8517 745.63 -52.6205 755.311C-53.3236 755.601 -53.034 756.731 -52.3033 756.469H-52.2895Z" fill="white"/>
<path d="M-25.9703 758.897C-10.4186 749.368 6.98053 743.548 24.6554 739.439C42.3303 735.329 62.2386 731.372 81.2095 730.268C99.3669 729.207 117.221 731.854 133.779 739.535C149.138 746.665 160.002 757.407 171.569 769.336C172.617 770.425 174.52 769.005 173.692 767.695C165.268 754.429 150.31 743.934 136.357 737.246C120.351 729.565 102.952 726.421 85.2491 727.083C65.4923 727.828 45.5151 731.868 26.3374 736.502C7.6423 741.025 -10.3359 747.423 -26.5356 757.931C-27.1422 758.331 -26.5907 759.296 -25.9565 758.91L-25.9703 758.897Z" fill="white"/>
</g>
</mask>
<g mask="url(#mask0_85_1337)">
<circle cx="271" cy="359" r="367" fill="url(#paint0_radial_85_1337)"/>
</g>
<defs>
<radialGradient id="paint0_radial_85_1337" cx="0" cy="0" r="1" gradientUnits="userSpaceOnUse" gradientTransform="translate(271 359) rotate(90) scale(367)">
<stop stop-color="#D9D9D9"/>
<stop offset="1" stop-color="#737373" stop-opacity="0"/>
</radialGradient>
</defs>
</svg>
