<svg width="51" height="51" viewBox="0 0 51 51" fill="none" xmlns="http://www.w3.org/2000/svg">
<path d="M47.1484 28.8646H29.108V46.905C29.108 47.8619 28.7279 48.7796 28.0512 49.4563C27.3746 50.1329 26.4569 50.513 25.4999 50.513C24.543 50.513 23.6253 50.1329 22.9486 49.4563C22.272 48.7796 21.8919 47.8619 21.8919 46.905V28.8646H3.85148C2.89456 28.8646 1.97683 28.4845 1.30019 27.8078C0.623544 27.1312 0.243408 26.2134 0.243408 25.2565C0.243408 24.2996 0.623544 23.3819 1.30019 22.7052C1.97683 22.0286 2.89456 21.6484 3.85148 21.6484H21.8919V3.60807C21.8919 2.65115 22.272 1.73342 22.9486 1.05678C23.6253 0.380134 24.543 0 25.4999 0C26.4569 0 27.3746 0.380134 28.0512 1.05678C28.7279 1.73342 29.108 2.65115 29.108 3.60807V21.6484H47.1484C48.1053 21.6484 49.023 22.0286 49.6997 22.7052C50.3763 23.3819 50.7565 24.2996 50.7565 25.2565C50.7565 26.2134 50.3763 27.1312 49.6997 27.8078C49.023 28.4845 48.1053 28.8646 47.1484 28.8646Z" fill="#1FCF43"/>
<path d="M47.1484 28.8646H29.108V46.905C29.108 47.8619 28.7279 48.7796 28.0512 49.4563C27.3746 50.1329 26.4569 50.513 25.4999 50.513C24.543 50.513 23.6253 50.1329 22.9486 49.4563C22.272 48.7796 21.8919 47.8619 21.8919 46.905V28.8646H3.85148C2.89456 28.8646 1.97683 28.4845 1.30019 27.8078C0.623544 27.1312 0.243408 26.2134 0.243408 25.2565C0.243408 24.2996 0.623544 23.3819 1.30019 22.7052C1.97683 22.0286 2.89456 21.6484 3.85148 21.6484H21.8919V3.60807C21.8919 2.65115 22.272 1.73342 22.9486 1.05678C23.6253 0.380134 24.543 0 25.4999 0C26.4569 0 27.3746 0.380134 28.0512 1.05678C28.7279 1.73342 29.108 2.65115 29.108 3.60807V21.6484H47.1484C48.1053 21.6484 49.023 22.0286 49.6997 22.7052C50.3763 23.3819 50.7565 24.2996 50.7565 25.2565C50.7565 26.2134 50.3763 27.1312 49.6997 27.8078C49.023 28.4845 48.1053 28.8646 47.1484 28.8646Z" fill="black" fill-opacity="0.3"/>
<path d="M47.1484 28.8646H29.108V46.905C29.108 47.8619 28.7279 48.7796 28.0512 49.4563C27.3746 50.1329 26.4569 50.513 25.4999 50.513C24.543 50.513 23.6253 50.1329 22.9486 49.4563C22.272 48.7796 21.8919 47.8619 21.8919 46.905V28.8646H3.85148C2.89456 28.8646 1.97683 28.4845 1.30019 27.8078C0.623544 27.1312 0.243408 26.2134 0.243408 25.2565C0.243408 24.2996 0.623544 23.3819 1.30019 22.7052C1.97683 22.0286 2.89456 21.6484 3.85148 21.6484H21.8919V3.60807C21.8919 2.65115 22.272 1.73342 22.9486 1.05678C23.6253 0.380134 24.543 0 25.4999 0C26.4569 0 27.3746 0.380134 28.0512 1.05678C28.7279 1.73342 29.108 2.65115 29.108 3.60807V21.6484H47.1484C48.1053 21.6484 49.023 22.0286 49.6997 22.7052C50.3763 23.3819 50.7565 24.2996 50.7565 25.2565C50.7565 26.2134 50.3763 27.1312 49.6997 27.8078C49.023 28.4845 48.1053 28.8646 47.1484 28.8646Z" fill="url(#paint0_radial_81_1057)"/>
<defs>
<radialGradient id="paint0_radial_81_1057" cx="0" cy="0" r="1" gradientUnits="userSpaceOnUse" gradientTransform="translate(-3.58313 -1.77206e-05) rotate(42.9098) scale(74.1915 51.414)">
<stop stop-color="white" stop-opacity="0.4"/>
<stop offset="1" stop-color="white" stop-opacity="0"/>
</radialGradient>
</defs>
</svg>
