<svg width="25" height="25" viewBox="0 0 25 25" fill="none" xmlns="http://www.w3.org/2000/svg">
<path d="M12.6981 20.5C8.28812 20.5 4.69812 16.91 4.69812 12.5C4.69812 8.09 8.28812 4.5 12.6981 4.5C17.1081 4.5 20.6981 8.09 20.6981 12.5C20.6981 16.91 17.1081 20.5 12.6981 20.5ZM12.6981 2.5C11.3849 2.5 10.0845 2.75866 8.87129 3.2612C7.65803 3.76375 6.55564 4.50035 5.62705 5.42893C3.75169 7.3043 2.69812 9.84784 2.69812 12.5C2.69812 15.1522 3.75169 17.6957 5.62705 19.5711C6.55564 20.4997 7.65803 21.2362 8.87129 21.7388C10.0845 22.2413 11.3849 22.5 12.6981 22.5H20.6981C21.2286 22.5 21.7373 22.2893 22.1123 21.9142C22.4874 21.5391 22.6981 21.0304 22.6981 20.5V12.5C22.6981 11.1868 22.4395 9.88642 21.9369 8.67317C21.4344 7.45991 20.6978 6.35752 19.7692 5.42893C18.8406 4.50035 17.7382 3.76375 16.525 3.2612C15.3117 2.75866 14.0113 2.5 12.6981 2.5ZM13.6981 7.5H11.6981V11.5H7.69812V13.5H11.6981V17.5H13.6981V13.5H17.6981V11.5H13.6981V7.5Z" fill="white"/>
</svg>
