<svg width="25" height="20" viewBox="0 0 25 20" fill="none" xmlns="http://www.w3.org/2000/svg">
<path d="M7.85017 9.54313C9.09585 9.54313 10.2905 9.04829 11.1714 8.16746C12.0522 7.28662 12.547 6.09196 12.547 4.84627C12.547 3.60059 12.0522 2.40592 11.1714 1.52509C10.2905 0.64426 9.09585 0.149414 7.85017 0.149414C6.60449 0.149414 5.40982 0.64426 4.52899 1.52509C3.64816 2.40592 3.15331 3.60059 3.15331 4.84627C3.15331 6.09196 3.64816 7.28662 4.52899 8.16746C5.40982 9.04829 6.60449 9.54313 7.85017 9.54313ZM18.4181 9.54313C19.3524 9.54313 20.2484 9.172 20.909 8.51138C21.5696 7.85075 21.9407 6.95475 21.9407 6.02049C21.9407 5.08623 21.5696 4.19023 20.909 3.5296C20.2484 2.86898 19.3524 2.49784 18.4181 2.49784C17.4838 2.49784 16.5878 2.86898 15.9272 3.5296C15.2666 4.19023 14.8955 5.08623 14.8955 6.02049C14.8955 6.95475 15.2666 7.85075 15.9272 8.51138C16.5878 9.172 17.4838 9.54313 18.4181 9.54313ZM2.41943 11.3045C1.83551 11.3045 1.27551 11.5364 0.862623 11.9493C0.449733 12.3622 0.217773 12.9222 0.217773 13.5061V14.24C0.217773 14.24 0.217773 19.524 7.85017 19.524C15.4826 19.524 15.4826 14.24 15.4826 14.24V13.5061C15.4826 12.9222 15.2506 12.3622 14.8377 11.9493C14.4248 11.5364 13.8648 11.3045 13.2809 11.3045H2.41943ZM15.2912 17.8149C16.099 18.1425 17.1224 18.3497 18.4175 18.3497C24.5821 18.3497 24.5821 13.6529 24.5821 13.6529V13.5061C24.5821 12.9223 24.3503 12.3624 23.9375 11.9495C23.5247 11.5366 22.9649 11.3046 22.3811 11.3045H15.8389C16.3668 11.9164 16.6567 12.698 16.6556 13.5061V14.2664L16.655 14.2999L16.6515 14.3879C16.6484 14.4557 16.6415 14.5398 16.6309 14.6404C16.6015 14.9026 16.5544 15.1625 16.49 15.4183C16.2674 16.2941 15.8585 17.1116 15.2912 17.8149Z" fill="#8C8C8C"/>
</svg>
