<svg width="21" height="20" viewBox="0 0 21 20" fill="none" xmlns="http://www.w3.org/2000/svg">
<path fill-rule="evenodd" clip-rule="evenodd" d="M18.6488 7.76288C18.5923 7.76026 18.5358 7.7593 18.4793 7.75998H16.1204C14.1907 7.75998 12.5381 9.29153 12.5381 11.289C12.5381 13.2866 14.1907 14.8181 16.1214 14.8181H18.4783C18.5377 14.8188 18.5942 14.8175 18.6478 14.8142C19.046 14.7884 19.4213 14.6189 19.7039 14.3372C19.9865 14.0555 20.1572 13.6808 20.1843 13.2827C20.1881 13.2255 20.1881 13.1645 20.1881 13.1083V9.46978C20.1881 9.41359 20.1881 9.35256 20.1843 9.29541C20.1572 8.89747 19.9866 8.52288 19.7042 8.24121C19.4218 7.95953 19.0468 7.78991 18.6488 7.76385M15.9141 12.2307C16.4111 12.2307 16.815 11.8102 16.815 11.29C16.815 10.7698 16.4111 10.3494 15.9141 10.3494C15.4171 10.3494 15.0142 10.7698 15.0142 11.29C15.0142 11.8102 15.4162 12.2307 15.9141 12.2307Z" fill="#8C8C8C"/>
<path fill-rule="evenodd" clip-rule="evenodd" d="M18.4782 16.2304C18.5107 16.2292 18.5429 16.2357 18.5724 16.2493C18.6019 16.263 18.6278 16.2833 18.6479 16.3088C18.6681 16.3342 18.682 16.3641 18.6886 16.3959C18.6951 16.4277 18.6941 16.4606 18.6855 16.4919C18.4976 17.1623 18.2002 17.7338 17.7226 18.2143C17.0242 18.9186 16.1378 19.2315 15.0431 19.3797C13.9795 19.524 12.6213 19.524 10.9047 19.524H8.93142C7.2158 19.524 5.85668 19.524 4.79302 19.3797C3.69835 19.2315 2.81197 18.9186 2.11352 18.2143C1.41506 17.512 1.10507 16.6178 0.957825 15.5154C0.814453 14.4421 0.814453 13.0723 0.814453 11.3431V11.2366C0.814453 9.50739 0.814453 8.13664 0.957825 7.06523C1.10507 5.96185 1.41506 5.07062 2.11255 4.36441C2.811 3.66112 3.69739 3.34725 4.79205 3.2C5.85668 3.05566 7.2158 3.05566 8.93142 3.05566H10.9047C12.6203 3.05566 13.9795 3.05566 15.0431 3.2C16.1378 3.34822 17.0242 3.66112 17.7226 4.36441C18.2002 4.84587 18.4976 5.41742 18.6855 6.08875C18.6939 6.12002 18.6948 6.15282 18.6882 6.1845C18.6815 6.21618 18.6676 6.24588 18.6475 6.27121C18.6273 6.29654 18.6015 6.3168 18.5721 6.33037C18.5427 6.34393 18.5106 6.35043 18.4782 6.34934H16.1213C13.4728 6.34934 11.1391 8.45826 11.1391 11.2898C11.1391 14.1214 13.4738 16.2304 16.1223 16.2304H18.4782ZM4.31543 6.82014C4.2232 6.82052 4.13195 6.83906 4.04688 6.87471C3.96182 6.91036 3.88461 6.96241 3.81966 7.0279C3.75471 7.09339 3.7033 7.17102 3.66836 7.25638C3.63342 7.34174 3.61563 7.43314 3.61601 7.52537C3.61601 7.91577 3.92891 8.23157 4.31543 8.23157H8.05085C8.43834 8.23157 8.75124 7.91577 8.75124 7.52537C8.75175 7.33901 8.67828 7.16007 8.54696 7.02784C8.41564 6.89561 8.2372 6.82091 8.05085 6.82014H4.31543Z" fill="#8C8C8C"/>
<path d="M6.41113 2.10996L8.3079 0.71209C8.80292 0.346312 9.4022 0.148926 10.0177 0.148926C10.6332 0.148926 11.2325 0.346312 11.7275 0.71209L13.6349 2.11771C12.8367 2.08671 11.9455 2.08671 10.97 2.08671H8.86783C7.97466 2.08671 7.15415 2.08671 6.41113 2.10996Z" fill="#8C8C8C"/>
</svg>
