<svg width="22" height="23" viewBox="0 0 22 23" fill="none" xmlns="http://www.w3.org/2000/svg">
<ellipse opacity="0.1" cx="10.5117" cy="11.1149" rx="10.5117" ry="11.1149" transform="matrix(1 0 0 -1 0 22.2297)" fill="#F82E2E"/>
<path fill-rule="evenodd" clip-rule="evenodd" d="M10.2847 14.5985C10.328 14.7693 10.4337 14.9149 10.5786 15.0033C10.7234 15.0918 10.8955 15.1157 11.0571 15.07L14.5033 14.0936C14.6648 14.0478 14.8025 13.9361 14.8862 13.7829C14.9698 13.6298 14.9925 13.4478 14.9492 13.277L14.0258 9.63299C13.9802 9.4649 13.874 9.32246 13.7301 9.23635C13.5862 9.15023 13.416 9.12734 13.2563 9.1726C13.0965 9.21786 12.96 9.32765 12.8761 9.47832C12.7921 9.62899 12.7675 9.80848 12.8075 9.97815L13.3369 12.0671L7.00856 8.20375C6.8637 8.11532 6.69154 8.09135 6.52997 8.13713C6.3684 8.18291 6.23064 8.29468 6.147 8.44785C6.06337 8.60102 6.0407 8.78306 6.084 8.9539C6.12729 9.12474 6.23299 9.27041 6.37786 9.35884L12.7062 13.2221L10.7306 13.7819C10.5691 13.8277 10.4314 13.9394 10.3478 14.0926C10.2641 14.2457 10.2415 14.4277 10.2847 14.5985Z" fill="#F82E2E"/>
</svg>
