<svg width="27" height="33" viewBox="0 0 27 33" fill="none" xmlns="http://www.w3.org/2000/svg">
<path d="M16.8326 22.7143V26.4821C16.8326 27.2798 16.6039 27.6786 16.1464 27.6786C15.8767 27.6786 15.6127 27.5476 15.3547 27.2857V21.9107C15.6127 21.6488 15.8767 21.5179 16.1464 21.5179C16.6039 21.5179 16.8326 21.9167 16.8326 22.7143ZM22.7793 22.7321V23.5536H21.1959V22.7321C21.1959 21.9226 21.4598 21.5179 21.9876 21.5179C22.5154 21.5179 22.7793 21.9226 22.7793 22.7321ZM5.78365 18.8393H7.66619V17.1607H2.17692V18.8393H4.02427V29H5.78365V18.8393ZM10.8507 29H12.4165V20.1786H10.8507V26.9286C10.4988 27.4286 10.1645 27.6786 9.84783 27.6786C9.63671 27.6786 9.51355 27.5536 9.47836 27.3036C9.46663 27.2679 9.46077 27.0595 9.46077 26.6786V20.1786H7.89492V27.1607C7.89492 27.744 7.94183 28.1786 8.03567 28.4643C8.17642 28.9048 8.51656 29.125 9.05611 29.125C9.61911 29.125 10.2173 28.7619 10.8507 28.0357V29ZM18.3984 26.3571V22.8393C18.3984 21.9702 18.3457 21.381 18.2401 21.0714C18.0407 20.4048 17.6243 20.0714 16.9909 20.0714C16.4045 20.0714 15.8591 20.3929 15.3547 21.0357V17.1607H13.7889V29H15.3547V28.1429C15.8825 28.7976 16.4279 29.125 16.9909 29.125C17.6243 29.125 18.0407 28.7976 18.2401 28.1429C18.3457 27.8214 18.3984 27.2262 18.3984 26.3571ZM24.3452 26.1786V25.9464H22.7441C22.7441 26.5536 22.7324 26.9167 22.7089 27.0357C22.6268 27.4643 22.3922 27.6786 22.0052 27.6786C21.4656 27.6786 21.1959 27.2679 21.1959 26.4464V24.8929H24.3452V23.0536C24.3452 22.1131 24.1868 21.4226 23.8701 20.9821C23.4127 20.375 22.791 20.0714 22.0052 20.0714C21.2076 20.0714 20.5801 20.375 20.1226 20.9821C19.7942 21.4226 19.63 22.1131 19.63 23.0536V26.1429C19.63 27.0833 19.8001 27.7738 20.1402 28.2143C20.5977 28.8214 21.231 29.125 22.0404 29.125C22.8849 29.125 23.5182 28.8095 23.9405 28.1786C24.1516 27.8571 24.2748 27.5357 24.31 27.2143C24.3334 27.1071 24.3452 26.7619 24.3452 26.1786ZM13.6481 9.875V6.125C13.6481 5.30357 13.3959 4.89286 12.8916 4.89286C12.3872 4.89286 12.135 5.30357 12.135 6.125V9.875C12.135 10.7083 12.3872 11.125 12.8916 11.125C13.3959 11.125 13.6481 10.7083 13.6481 9.875ZM26.2981 23.2857C26.2981 26.0714 26.1456 28.1548 25.8406 29.5357C25.6764 30.2381 25.3363 30.8274 24.8202 31.3036C24.3041 31.7798 23.7059 32.0536 23.0256 32.125C20.8674 32.375 17.6126 32.5 13.261 32.5C8.90949 32.5 5.65463 32.375 3.49645 32.125C2.81616 32.0536 2.21504 31.7798 1.69308 31.3036C1.17113 30.8274 0.833919 30.2381 0.681439 29.5357C0.376479 28.2024 0.223999 26.119 0.223999 23.2857C0.223999 20.5 0.376479 18.4167 0.681439 17.0357C0.845648 16.3333 1.1858 15.744 1.70188 15.2679C2.21797 14.7917 2.82202 14.5119 3.51405 14.4286C5.6605 14.1905 8.90949 14.0714 13.261 14.0714C17.6126 14.0714 20.8674 14.1905 23.0256 14.4286C23.7059 14.5119 24.307 14.7917 24.829 15.2679C25.3509 15.744 25.6882 16.3333 25.8406 17.0357C26.1456 18.369 26.2981 20.4524 26.2981 23.2857ZM8.73942 0.5H10.534L8.40514 7.625V12.4643H6.64575V7.625C6.48154 6.74405 6.1238 5.48214 5.57253 3.83929C5.13855 2.6131 4.75735 1.5 4.42893 0.5H6.29388L7.54304 5.19643L8.73942 0.5ZM15.2491 6.44643V9.57143C15.2491 10.5357 15.0849 11.2381 14.7565 11.6786C14.3108 12.2857 13.6892 12.5893 12.8916 12.5893C12.1057 12.5893 11.4899 12.2857 11.0442 11.6786C10.7158 11.2262 10.5516 10.5238 10.5516 9.57143V6.44643C10.5516 5.49405 10.7158 4.79762 11.0442 4.35714C11.4899 3.75 12.1057 3.44643 12.8916 3.44643C13.6892 3.44643 14.3108 3.75 14.7565 4.35714C15.0849 4.79762 15.2491 5.49405 15.2491 6.44643ZM21.1431 3.55357V12.4643H19.542V11.4821C18.9204 12.2202 18.3163 12.5893 17.7299 12.5893C17.1903 12.5893 16.8443 12.369 16.6918 11.9286C16.598 11.6429 16.5511 11.1964 16.5511 10.5893V3.55357H18.1521V10.1071C18.1521 10.5 18.158 10.7083 18.1697 10.7321C18.2049 10.994 18.3281 11.125 18.5392 11.125C18.8559 11.125 19.1902 10.869 19.542 10.3571V3.55357H21.1431Z" fill="white"/>
</svg>
