<svg width="36" height="37" viewBox="0 0 36 37" fill="none" xmlns="http://www.w3.org/2000/svg">
<path d="M16.33 6.03828C18.4962 6.0363 20.6142 6.67683 22.4162 7.87883C24.2183 9.08082 25.6233 10.7903 26.4536 12.791C27.2839 14.7916 27.5022 16.9936 27.0808 19.1184C26.6595 21.2431 25.6174 23.1952 24.0864 24.7276C22.5554 26.2599 20.6043 27.3038 18.4799 27.7271C16.3556 28.1505 14.1534 27.9342 12.152 27.1057C10.1505 26.2772 8.43977 24.8737 7.23613 23.0728C6.03248 21.2719 5.39002 19.1544 5.39002 16.9883C5.40315 14.0899 6.55966 11.3139 8.60818 9.2635C10.6567 7.2131 13.4317 6.05406 16.33 6.03828ZM16.33 3.98828C13.7589 3.98828 11.2454 4.75072 9.10761 6.17918C6.96977 7.60763 5.30353 9.63796 4.31959 12.0134C3.33565 14.3888 3.07821 17.0027 3.57981 19.5245C4.08142 22.0462 5.31955 24.3626 7.13763 26.1807C8.95572 27.9988 11.2721 29.2369 13.7938 29.7385C16.3156 30.2401 18.9295 29.9827 21.3049 28.9987C23.6803 28.0148 25.7107 26.3485 27.1391 24.2107C28.5676 22.0729 29.33 19.5594 29.33 16.9883C29.33 13.5405 27.9604 10.2339 25.5224 7.79589C23.0844 5.35792 19.7778 3.98828 16.33 3.98828Z" fill="white"/>
<path d="M35 34.2784L27.63 26.8584L26.21 28.2684L33.58 35.6884C33.6726 35.7816 33.7826 35.8557 33.9039 35.9064C34.0251 35.9572 34.1551 35.9835 34.2865 35.984C34.4179 35.9844 34.5481 35.959 34.6697 35.9091C34.7912 35.8593 34.9018 35.786 34.995 35.6934C35.0883 35.6008 35.1624 35.4908 35.2131 35.3696C35.2638 35.2483 35.2901 35.1183 35.2906 34.9869C35.291 34.8555 35.2656 34.7253 35.2158 34.6038C35.1659 34.4822 35.0926 34.3716 35 34.2784Z" fill="white"/>
</svg>
