<svg width="30" height="31" viewBox="0 0 30 31" fill="none" xmlns="http://www.w3.org/2000/svg">
<path d="M14.9758 1L14.9758 20.3673L14.9758 1ZM14.9758 27.2035L14.9758 30L14.9758 27.2035ZM25.5019 1L25.5019 10.0104L25.5019 1ZM25.5019 16.8465L25.5019 30L25.5019 16.8465ZM4.44968 1L4.44968 5.8673L4.44968 1ZM4.44968 12.7035L4.44968 30L4.44968 12.7035ZM7.92279 9.28616C7.92279 8.8374 7.83296 8.39303 7.65842 7.97842C7.48388 7.56381 7.22805 7.18709 6.90554 6.86977C6.58303 6.55244 6.20016 6.30073 5.77878 6.12899C5.3574 5.95726 4.90577 5.86887 4.44968 5.86887C3.99358 5.86887 3.54195 5.95726 3.12057 6.12899C2.6992 6.30073 2.31632 6.55244 1.99381 6.86977C1.6713 7.18709 1.41548 7.56381 1.24094 7.97842C1.0664 8.39303 0.976562 8.8374 0.976562 9.28616C0.976562 10.1925 1.34248 11.0617 1.99381 11.7026C2.64515 12.3434 3.52855 12.7035 4.44968 12.7035C5.3708 12.7035 6.2542 12.3434 6.90554 11.7026C7.55688 11.0617 7.92279 10.1925 7.92279 9.28616ZM18.4489 23.7862C18.4489 22.8798 18.083 22.0106 17.4316 21.3698C16.7803 20.7289 15.8969 20.3689 14.9758 20.3689C14.0546 20.3689 13.1712 20.7289 12.5199 21.3698C11.8686 22.0106 11.5026 22.8798 11.5026 23.7862C11.5027 24.6925 11.8686 25.5617 12.5199 26.2026C13.1712 26.8434 14.0546 27.2035 14.9758 27.2035C15.8969 27.2035 16.7803 26.8434 17.4316 26.2026C18.083 25.5617 18.4489 24.6925 18.4489 23.7862ZM28.9766 13.4292C28.9766 12.5227 28.6106 11.6533 27.9591 11.0123C27.3076 10.3713 26.4232 10.0104 25.5019 10.0104C24.5805 10.0104 23.6977 10.3713 23.0462 11.0123C22.3947 11.6533 22.0287 12.5227 22.0287 13.4292C22.0287 14.3356 22.3947 15.2048 23.046 15.8456C23.6973 16.4865 24.5807 16.8465 25.5019 16.8465C26.423 16.8465 27.3064 16.4865 27.9577 15.8456C28.6091 15.2048 28.9766 14.3356 28.9766 13.4292Z" fill="#15D274"/>
<path d="M14.9758 1L14.9758 20.3673M14.9758 27.2035L14.9758 30M14.9758 27.2035C14.0546 27.2035 13.1712 26.8434 12.5199 26.2026C11.8686 25.5617 11.5026 24.6925 11.5026 23.7862C11.5026 22.8798 11.8686 22.0106 12.5199 21.3698C13.1712 20.7289 14.0546 20.3689 14.9758 20.3689C15.8969 20.3689 16.7803 20.7289 17.4316 21.3698C18.083 22.0106 18.4489 22.8798 18.4489 23.7862C18.4489 24.6925 18.083 25.5617 17.4316 26.2026C16.7803 26.8434 15.8969 27.2035 14.9758 27.2035ZM25.5019 1L25.5019 10.0104M25.5019 10.0104C26.4232 10.0104 27.3076 10.3713 27.9591 11.0123C28.6106 11.6533 28.9766 12.5227 28.9766 13.4292C28.9766 14.3356 28.6091 15.2048 27.9577 15.8456C27.3064 16.4865 26.423 16.8465 25.5019 16.8465M25.5019 10.0104C24.5805 10.0104 23.6977 10.3713 23.0462 11.0123C22.3947 11.6533 22.0287 12.5227 22.0287 13.4292C22.0287 14.3356 22.3947 15.2048 23.046 15.8456C23.6973 16.4865 24.5807 16.8465 25.5019 16.8465M25.5019 16.8465L25.5019 30M4.44968 1L4.44968 5.8673M4.44968 12.7035L4.44968 30M4.44968 12.7035C3.52855 12.7035 2.64515 12.3434 1.99381 11.7026C1.34248 11.0617 0.976562 10.1925 0.976562 9.28616C0.976562 8.8374 1.0664 8.39303 1.24094 7.97842C1.41548 7.56381 1.6713 7.18709 1.99381 6.86977C2.31632 6.55244 2.6992 6.30073 3.12057 6.12899C3.54195 5.95726 3.99358 5.86887 4.44968 5.86887C4.90577 5.86887 5.3574 5.95726 5.77878 6.12899C6.20016 6.30073 6.58303 6.55244 6.90554 6.86977C7.22805 7.18709 7.48388 7.56381 7.65842 7.97842C7.83296 8.39303 7.92279 8.8374 7.92279 9.28616C7.92279 10.1925 7.55688 11.0617 6.90554 11.7026C6.2542 12.3434 5.3708 12.7035 4.44968 12.7035Z" stroke="white" stroke-width="1.04978" stroke-miterlimit="10" stroke-linecap="round"/>
</svg>
